<svg xmlns="http://www.w3.org/2000/svg" version="1.1" xmlns:xlink="http://www.w3.org/1999/xlink" xmlns:svgjs="http://svgjs.com/svgjs" width="1376" height="500" preserveAspectRatio="none" viewBox="0 0 1376 500"><g mask="url(&quot;#SvgjsMask1067&quot;)" fill="none"><rect width="1376" height="500" x="0" y="0" fill="url(#SvgjsLinearGradient1068)"></rect><path d="M50 500L550 0L950.5 0L450.5 500z" fill="url(#SvgjsLinearGradient1069)"></path><path d="M303.72 500L803.72 0L1003.22 0L503.22 500z" fill="url(#SvgjsLinearGradient1069)"></path><path d="M654.44 500L1154.44 0L1454.44 0L954.44 500z" fill="url(#SvgjsLinearGradient1069)"></path><path d="M1336 500L836 0L387.5 0L887.5 500z" fill="url(#SvgjsLinearGradient1070)"></path><path d="M1032.28 500L532.28 0L143.77999999999997 0L643.78 500z" fill="url(#SvgjsLinearGradient1070)"></path><path d="M752.56 500L252.55999999999995 0L185.05999999999995 0L685.06 500z" fill="url(#SvgjsLinearGradient1070)"></path><path d="M944.7007907919291 500L1376 68.70079079192908L1376 500z" fill="url(#SvgjsLinearGradient1069)"></path><path d="M0 500L431.2992092080709 500L 0 68.70079079192908z" fill="url(#SvgjsLinearGradient1070)"></path></g><defs><mask id="SvgjsMask1067"><rect width="1376" height="500" fill="#ffffff"></rect></mask><linearGradient x1="15.92%" y1="-43.8%" x2="84.08%" y2="143.8%" gradientUnits="userSpaceOnUse" id="SvgjsLinearGradient1068"><stop stop-color="#0e2a47" offset="0"></stop><stop stop-color="#00459e" offset="1"></stop></linearGradient><linearGradient x1="0%" y1="100%" x2="100%" y2="0%" id="SvgjsLinearGradient1069"><stop stop-color="rgba(15, 70, 185, 0.2)" offset="0"></stop><stop stop-opacity="0" stop-color="rgba(15, 70, 185, 0.2)" offset="0.66"></stop></linearGradient><linearGradient x1="100%" y1="100%" x2="0%" y2="0%" id="SvgjsLinearGradient1070"><stop stop-color="rgba(15, 70, 185, 0.2)" offset="0"></stop><stop stop-opacity="0" stop-color="rgba(15, 70, 185, 0.2)" offset="0.66"></stop></linearGradient></defs></svg>