<?xml version="1.0" encoding="utf-8"?>
<!-- Generator: Adobe Illustrator 16.0.0, SVG Export Plug-In . SVG Version: 6.00 Build 0)  -->
<!DOCTYPE svg PUBLIC "-//W3C//DTD SVG 1.0//EN" "http://www.w3.org/TR/2001/REC-SVG-20010904/DTD/svg10.dtd">
<svg version="1.0" id="Layer_1" xmlns="http://www.w3.org/2000/svg" xmlns:xlink="http://www.w3.org/1999/xlink" x="0px" y="0px"
	 width="100px" height="100px" viewBox="0 0 100 100" enable-background="new 0 0 100 100" xml:space="preserve">
<path fill="#E9EAEF" stroke="#335C5F" stroke-width="1.5" stroke-linecap="round" stroke-linejoin="round" stroke-miterlimit="10" d="
	M78.89,23.333c2.455,0,4.443,1.989,4.443,4.445v42.223H16.666V27.778c0-2.456,1.99-4.445,4.443-4.445H78.89z"/>
<path fill="#CACCD1" d="M78.89,23.333h-3.333c2.457,0,4.442,1.989,4.442,4.445v42.223h3.334V27.778
	C83.333,25.322,81.345,23.333,78.89,23.333z"/>
<rect x="10" y="70.001" fill="#D7DAE7" stroke="#335C5F" stroke-width="1.5" stroke-linecap="round" stroke-linejoin="round" stroke-miterlimit="10" width="80" height="4.444"/>
<rect x="86.666" y="70.001" fill="#BBBECA" width="3.334" height="4.444"/>
<rect x="19.998" y="28.888" fill="#46C6F1" stroke="#335C5F" stroke-width="1.5" stroke-linecap="round" stroke-linejoin="round" stroke-miterlimit="10" width="60.003" height="35.556"/>
<rect x="76.668" y="28.888" fill="#3EAED3" width="3.333" height="35.556"/>
<polygon fill="#70929F" stroke="#335C5F" stroke-width="1.5" stroke-linecap="round" stroke-linejoin="round" stroke-miterlimit="10" points="
	52.223,25.555 47.776,25.555 45.557,23.333 54.442,23.333 "/>
<rect x="19.998" y="67.778" fill="#70929F" stroke="#335C5F" stroke-width="1.5" stroke-linecap="round" stroke-linejoin="round" stroke-miterlimit="10" width="4.446" height="2.223"/>
<polygon fill="#70929F" stroke="#335C5F" stroke-width="1.5" stroke-linecap="round" stroke-linejoin="round" stroke-miterlimit="10" points="
	85.557,76.667 14.443,76.667 10,74.445 90,74.445 "/>
<polygon fill="#62818C" points="86.666,74.445 82.224,76.667 85.557,76.667 90,74.445 "/>
<rect x="75.559" y="67.778" fill="#70929F" stroke="#335C5F" stroke-width="1.5" stroke-linecap="round" stroke-linejoin="round" stroke-miterlimit="10" width="4.442" height="2.223"/>
<path fill="none" stroke="#335C5F" stroke-width="1.5" stroke-linecap="round" stroke-linejoin="round" stroke-miterlimit="10" d="
	M78.89,23.333c2.455,0,4.443,1.989,4.443,4.445v42.223H16.666V27.778c0-2.456,1.99-4.445,4.443-4.445H78.89z"/>
<rect x="10" y="70.001" fill="none" stroke="#335C5F" stroke-width="1.5" stroke-linecap="round" stroke-linejoin="round" stroke-miterlimit="10" width="80" height="4.444"/>
<rect x="19.998" y="28.888" fill="none" stroke="#335C5F" stroke-width="1.5" stroke-linecap="round" stroke-linejoin="round" stroke-miterlimit="10" width="60.003" height="35.556"/>
<polygon fill="none" stroke="#335C5F" stroke-width="1.5" stroke-linecap="round" stroke-linejoin="round" stroke-miterlimit="10" points="
	85.557,76.667 14.443,76.667 10,74.445 90,74.445 "/>
</svg>
