<?xml version="1.0" encoding="iso-8859-1"?>
<!-- Generator: Adobe Illustrator 19.0.0, SVG Export Plug-In . SVG Version: 6.00 Build 0)  -->
<svg xmlns="http://www.w3.org/2000/svg" xmlns:xlink="http://www.w3.org/1999/xlink" version="1.1" id="Layer_1" x="0px" y="0px" viewBox="0 0 512 512" style="enable-background:new 0 0 512 512;" xml:space="preserve">
<circle style="fill:#00C3FF;" cx="256" cy="256" r="247.409"/>
<path style="fill:#00AAF0;" d="M290.362,443.848c-122.723,0-222.21-99.487-222.21-222.21c0-97.483,62.8-180.245,150.128-210.189  C99.543,29.612,8.591,132.184,8.591,256c0,136.64,110.77,247.409,247.409,247.409c123.817,0,226.388-90.953,244.552-209.69  C470.606,381.048,387.845,443.848,290.362,443.848z"/>
<g>
	<path style="fill:#7DD7FF;" d="M301.826,97.159c-0.796,0-1.61-0.108-2.416-0.326c-14.068-3.83-28.672-5.772-43.41-5.772   c-5.065,0-9.163-4.103-9.163-9.163c0-5.06,4.098-9.163,9.163-9.163c16.358,0,32.581,2.157,48.224,6.417   c4.886,1.329,7.767,6.367,6.434,11.248C309.548,94.474,305.852,97.159,301.826,97.159z"/>
	<path style="fill:#7DD7FF;" d="M429.145,246.846c-4.635,0-8.609-3.499-9.1-8.21c-5.262-50.229-34.139-96.184-77.252-122.921   c-4.295-2.667-5.619-8.313-2.953-12.613c2.667-4.291,8.313-5.633,12.618-2.957c47.893,29.701,79.973,80.761,85.808,136.586   c0.528,5.034-3.124,9.539-8.152,10.067C429.781,246.828,429.459,246.846,429.145,246.846z"/>
</g>
<path d="M437.019,74.98C388.668,26.629,324.38,0,256,0S123.332,26.629,74.981,74.98C26.629,123.332,0,187.62,0,256  s26.629,132.668,74.981,181.02C123.332,485.371,187.62,512,256,512s132.668-26.629,181.019-74.98  C485.371,388.668,512,324.38,512,256S485.371,123.332,437.019,74.98z M256,494.819C124.314,494.819,17.181,387.685,17.181,256  S124.314,17.181,256,17.181S494.819,124.315,494.819,256S387.686,494.819,256,494.819z"/>
<path d="M53.834,256c0-111.474,90.692-202.166,202.166-202.166c35.069,0,69.614,9.116,99.901,26.366  c4.124,2.348,9.368,0.911,11.716-3.214c2.348-4.122,0.908-9.368-3.214-11.716C331.531,46.55,294.046,36.653,256,36.653  C135.051,36.653,36.653,135.052,36.653,256c0,50.914,17.839,100.526,50.231,139.697c1.699,2.055,4.153,3.117,6.625,3.117  c1.929,0,3.868-0.646,5.469-1.97c3.656-3.024,4.17-8.438,1.147-12.094C70.275,348.65,53.834,302.926,53.834,256z"/>
<path d="M446.706,147.555c-2.35-4.122-7.598-5.56-11.716-3.211c-4.123,2.349-5.56,7.594-3.212,11.716  c17.263,30.295,26.388,64.853,26.388,99.94c0,111.474-90.692,202.166-202.166,202.166c-47.08,0-92.917-16.534-129.071-46.556  c-3.65-3.031-9.066-2.529-12.097,1.121c-3.031,3.65-2.53,9.066,1.121,12.098c39.23,32.577,88.967,50.518,140.046,50.518  c120.949,0,219.347-98.399,219.347-219.347C475.347,217.937,465.444,180.436,446.706,147.555z"/>
<path d="M387.867,102.756c7.632,6.574,14.831,13.775,21.4,21.403c1.699,1.974,4.099,2.985,6.514,2.985  c1.985,0,3.98-0.684,5.602-2.08c3.595-3.096,4.001-8.52,0.905-12.115c-7.123-8.272-14.93-16.082-23.207-23.211  c-3.592-3.095-9.017-2.693-12.115,0.903C383.868,94.235,384.271,99.659,387.867,102.756z"/>
<path d="M160.904,319.57c11.434,0,22.436-3.55,31.82-10.264c3.858-2.762,4.748-8.128,1.985-11.986  c-2.762-3.86-8.13-4.745-11.986-1.986c-6.449,4.615-13.994,7.055-21.82,7.055c-21.142,0-38.344-17.728-38.344-39.517v-13.745  c0-21.789,17.202-39.517,38.345-39.517c7.825,0,15.371,2.44,21.821,7.055c3.857,2.76,9.223,1.874,11.986-1.986  c2.76-3.859,1.872-9.225-1.987-11.986c-9.382-6.714-20.386-10.264-31.818-10.264c-30.619,0-55.527,25.435-55.527,56.698v13.745  C105.378,294.135,130.286,319.57,160.904,319.57z"/>
<path d="M256.001,302.389c-14.862,0-26.536-6.616-28.829-12.746c-1.661-4.443-6.609-6.698-11.056-5.035  c-4.444,1.662-6.698,6.612-5.035,11.056c5.265,14.076,23.738,23.907,44.92,23.907c25.495,0,45.465-14.339,45.465-32.644  c0-25.799-25.827-33.822-42.918-39.131c-23.629-7.34-30.832-12.649-30.832-22.722c0-7.313,11.617-15.463,28.284-15.463  c14.862,0,26.536,6.616,28.829,12.746c1.662,4.444,6.611,6.702,11.056,5.035c4.444-1.662,6.698-6.612,5.035-11.056  c-5.264-14.076-23.736-23.907-44.919-23.907c-25.495,0-45.465,14.339-45.465,32.644c0,25.798,25.827,33.822,42.917,39.131  c23.629,7.34,30.832,12.648,30.832,22.722C284.285,294.24,272.669,302.389,256.001,302.389z"/>
<path d="M361.157,302.389c-14.862,0-26.536-6.616-28.829-12.746c-1.661-4.443-6.61-6.698-11.056-5.035  c-4.444,1.662-6.698,6.612-5.035,11.056c5.266,14.076,23.736,23.907,44.92,23.907c25.493,0,45.465-14.339,45.465-32.644  c0-25.799-25.827-33.822-42.918-39.131c-23.629-7.34-30.832-12.649-30.832-22.722c0-7.313,11.617-15.463,28.284-15.463  c14.862,0,26.536,6.616,28.829,12.746c1.662,4.444,6.611,6.702,11.056,5.035c4.444-1.662,6.698-6.612,5.035-11.056  c-5.264-14.076-23.736-23.907-44.919-23.907c-25.495,0-45.465,14.339-45.465,32.644c0,25.798,25.827,33.822,42.918,39.131  c23.628,7.339,30.831,12.648,30.831,22.722C389.441,294.24,377.824,302.389,361.157,302.389z"/>
<g>
</g>
<g>
</g>
<g>
</g>
<g>
</g>
<g>
</g>
<g>
</g>
<g>
</g>
<g>
</g>
<g>
</g>
<g>
</g>
<g>
</g>
<g>
</g>
<g>
</g>
<g>
</g>
<g>
</g>
</svg>
