<?xml version="1.0" encoding="UTF-8"?>
<!DOCTYPE svg PUBLIC "-//W3C//DTD SVG 1.1//EN" "http://www.w3.org/Graphics/SVG/1.1/DTD/svg11.dtd">
<!-- Creator: CorelDRAW -->
<svg xmlns="http://www.w3.org/2000/svg" xml:space="preserve" width="2048px" height="2048px" style="shape-rendering:geometricPrecision; text-rendering:geometricPrecision; image-rendering:optimizeQuality; fill-rule:evenodd; clip-rule:evenodd"
viewBox="0 0 2048 2048"
 xmlns:xlink="http://www.w3.org/1999/xlink">
 <defs>
  <style type="text/css">
   <![CDATA[
    .fil2 {fill:none}
    .fil1 {fill:#BDBDBD}
    .fil0 {fill:#E0E0E0}
    .fil3 {fill:#0288D1;fill-rule:nonzero}
    .fil6 {fill:#303F9F;fill-rule:nonzero}
    .fil5 {fill:#689F38;fill-rule:nonzero}
    .fil7 {fill:#7CB342;fill-rule:nonzero}
    .fil4 {fill:#E53935;fill-rule:nonzero}
   ]]>
  </style>
   <clipPath id="id0">
    <path d="M1024 -0.0011811c565.541,0 1024,458.461 1024,1024 0,565.541 -458.461,1024 -1024,1024 -565.541,0 -1024,-458.461 -1024,-1024 0,-565.541 458.461,-1024 1024,-1024z"/>
   </clipPath>
 </defs>
 <g id="Layer_x0020_1">
  <metadata id="CorelCorpID_0Corel-Layer"/>
  <path class="fil0" d="M1024 -0.0011811c565.541,0 1024,458.461 1024,1024 0,565.541 -458.461,1024 -1024,1024 -565.541,0 -1024,-458.461 -1024,-1024 0,-565.541 458.461,-1024 1024,-1024z"/>
  <g style="clip-path:url(#id0)">
   <g id="_385674688">
    <g>
     <polygon id="_2374898881" class="fil1" points="1170.01,719.11 2305.89,1854.99 2309.02,1858.52 2312.07,1862.13 2315.03,1865.81 2317.91,1869.56 2320.7,1873.38 2323.4,1877.28 2326,1881.23 2328.51,1885.26 2330.93,1889.34 2333.25,1893.5 2335.47,1897.71 2337.59,1901.98 2339.62,1906.31 2341.53,1910.69 2343.35,1915.13 2345.06,1919.62 2346.66,1924.17 2348.15,1928.77 2349.53,1933.41 2350.8,1938.1 2351.96,1942.84 2353,1947.62 2353.92,1952.44 2354.73,1957.3 2355.41,1962.21 2355.98,1967.15 2356.42,1972.13 2356.74,1977.14 2356.93,1982.18 2356.99,1987.26 1221.11,851.379 1221.05,846.302 1220.86,841.257 1220.54,836.245 1220.1,831.268 1219.53,826.326 1218.85,821.422 1218.04,816.558 1217.12,811.736 1216.08,806.955 1214.92,802.218 1213.65,797.527 1212.27,792.883 1210.78,788.287 1209.17,783.742 1207.47,779.249 1205.65,774.81 1203.73,770.424 1201.71,766.095 1199.59,761.825 1197.37,757.613 1195.05,753.462 1192.63,749.375 1190.12,745.351 1187.51,741.393 1184.82,737.502 1182.03,733.68 1179.15,729.929 1176.19,726.249 1173.14,722.642 "/>
     <polygon id="_237489984" class="fil1" points="1221.11,851.379 2356.99,1987.26 2356.96,1991 2356.86,1994.71 2356.68,1998.41 2356.44,2002.1 2356.14,2005.76 2355.76,2009.4 2355.32,2013.03 2354.82,2016.63 2354.25,2020.21 2353.61,2023.77 2352.91,2027.31 2352.15,2030.83 2351.33,2034.32 2350.44,2037.79 2349.5,2041.23 2348.49,2044.65 2347.43,2048.04 2346.3,2051.4 2345.11,2054.74 2343.87,2058.05 2342.57,2061.33 2341.22,2064.58 2339.8,2067.8 2338.33,2070.99 2336.81,2074.15 2335.23,2077.28 2333.6,2080.38 2331.92,2083.44 2330.18,2086.47 2328.39,2089.46 2326.55,2092.43 2324.66,2095.35 1188.78,959.469 1190.67,956.544 1192.51,953.583 1194.3,950.586 1196.04,947.557 1197.72,944.493 1199.35,941.397 1200.93,938.268 1202.45,935.108 1203.92,931.916 1205.33,928.696 1206.69,925.444 1207.99,922.164 1209.23,918.855 1210.42,915.518 1211.54,912.154 1212.61,908.763 1213.62,905.346 1214.56,901.903 1215.45,898.437 1216.27,894.944 1217.03,891.429 1217.73,887.892 1218.36,884.331 1218.94,880.749 1219.44,877.145 1219.88,873.522 1220.25,869.877 1220.56,866.214 1220.8,862.531 1220.97,858.831 1221.08,855.114 "/>
     <polygon id="_237490368" class="fil1" points="1552.52,1190.68 2688.4,2326.56 2690.33,2328.74 2692.21,2330.96 2694.03,2333.23 2695.81,2335.54 2697.52,2337.89 2699.18,2340.29 2700.79,2342.73 2702.34,2345.21 2703.83,2347.73 2705.25,2350.28 2706.62,2352.88 2707.93,2355.51 2709.18,2358.17 2710.36,2360.88 2711.48,2363.61 2712.53,2366.38 2713.51,2369.18 2714.43,2372.01 2715.28,2374.87 2716.07,2377.76 2716.78,2380.68 2717.42,2383.62 2717.99,2386.59 2718.49,2389.59 2718.91,2392.61 2719.26,2395.65 2719.53,2398.72 2719.72,2401.81 2719.84,2404.92 2719.88,2408.04 1584,1272.16 1583.96,1269.03 1583.84,1265.93 1583.65,1262.84 1583.38,1259.77 1583.03,1256.73 1582.61,1253.71 1582.11,1250.71 1581.54,1247.74 1580.9,1244.8 1580.19,1241.88 1579.4,1238.99 1578.55,1236.13 1577.63,1233.3 1576.65,1230.5 1575.59,1227.73 1574.48,1224.99 1573.29,1222.29 1572.05,1219.62 1570.74,1216.99 1569.37,1214.4 1567.94,1211.84 1566.46,1209.33 1564.91,1206.85 1563.3,1204.41 1561.64,1202.01 1559.92,1199.66 1558.15,1197.35 1556.33,1195.08 1554.45,1192.86 "/>
     <polygon id="_237490248" class="fil1" points="1584,1272.16 2719.88,2408.04 2719.84,2411.17 2719.72,2414.28 2719.53,2417.37 2719.26,2420.43 2718.91,2423.48 2718.49,2426.5 2717.99,2429.49 2717.42,2432.46 2716.78,2435.41 2716.07,2438.33 2715.28,2441.22 2714.43,2444.08 2713.51,2446.91 2712.53,2449.71 2711.48,2452.47 2710.36,2455.21 2709.18,2457.91 2707.93,2460.58 2706.62,2463.21 2705.25,2465.8 2703.83,2468.36 2702.34,2470.88 2700.79,2473.36 2699.18,2475.79 2697.52,2478.19 2695.81,2480.54 2694.03,2482.86 2692.21,2485.12 2690.33,2487.34 2688.4,2489.52 2686.42,2491.65 2684.39,2493.73 1548.51,1357.85 1550.54,1355.77 1552.52,1353.64 1554.45,1351.46 1556.33,1349.24 1558.15,1346.97 1559.92,1344.66 1561.64,1342.31 1563.3,1339.91 1564.91,1337.47 1566.46,1335 1567.94,1332.48 1569.37,1329.92 1570.74,1327.33 1572.05,1324.69 1573.29,1322.03 1574.48,1319.33 1575.59,1316.59 1576.65,1313.82 1577.63,1311.02 1578.55,1308.19 1579.4,1305.33 1580.19,1302.44 1580.9,1299.53 1581.54,1296.58 1582.11,1293.61 1582.61,1290.61 1583.03,1287.59 1583.38,1284.55 1583.65,1281.48 1583.84,1278.4 1583.96,1275.29 "/>
     <polygon id="_237490272" class="fil1" points="1363.84,1202.23 2499.72,2338.12 2293.55,2131.95 1157.67,996.068 "/>
     <polygon id="_237490512" class="fil1" points="1157.67,996.068 2293.55,2131.95 2290.76,2134.47 2287.92,2136.95 2285.03,2139.36 2282.1,2141.73 2279.12,2144.04 2276.09,2146.29 2273.02,2148.48 2269.91,2150.62 2266.75,2152.7 2263.56,2154.72 2260.32,2156.67 2257.04,2158.57 2253.72,2160.41 2250.37,2162.18 2246.97,2163.89 2243.54,2165.54 2240.07,2167.12 2236.57,2168.64 2233.03,2170.09 2229.45,2171.47 2225.85,2172.78 2222.21,2174.03 2218.54,2175.21 2214.84,2176.31 2211.11,2177.35 2207.35,2178.31 2203.56,2179.2 2199.74,2180.02 2195.9,2180.76 2192.03,2181.43 2188.13,2182.02 2184.21,2182.54 1048.33,1046.66 1052.25,1046.14 1056.15,1045.55 1060.02,1044.88 1063.86,1044.14 1067.68,1043.32 1071.47,1042.43 1075.23,1041.47 1078.96,1040.43 1082.66,1039.33 1086.33,1038.15 1089.97,1036.9 1093.57,1035.59 1097.15,1034.21 1100.68,1032.76 1104.19,1031.24 1107.66,1029.66 1111.09,1028.01 1114.48,1026.3 1117.84,1024.53 1121.16,1022.69 1124.44,1020.79 1127.68,1018.83 1130.87,1016.81 1134.03,1014.74 1137.14,1012.6 1140.21,1010.4 1143.24,1008.15 1146.22,1005.85 1149.15,1003.48 1152.04,1001.06 1154.88,998.592 "/>
     <polygon id="_237490056" class="fil1" points="1548.51,1357.85 2684.39,2493.73 2682.31,2495.76 2680.18,2497.74 2678,2499.67 2675.78,2501.55 2673.51,2503.38 2671.2,2505.15 2668.85,2506.86 2666.45,2508.53 2664.01,2510.13 2661.53,2511.68 2659.02,2513.17 2656.46,2514.6 2653.87,2515.97 2651.23,2517.27 2648.57,2518.52 2645.87,2519.7 2643.13,2520.82 2640.36,2521.87 2637.56,2522.86 2634.73,2523.78 2631.87,2524.63 2628.98,2525.41 2626.07,2526.12 2623.12,2526.76 2620.15,2527.33 2617.15,2527.83 2614.13,2528.25 2611.09,2528.6 2608.02,2528.87 2604.94,2529.07 2601.83,2529.18 2598.7,2529.22 1462.82,1393.34 1465.95,1393.3 1469.05,1393.18 1472.14,1392.99 1475.21,1392.72 1478.25,1392.37 1481.27,1391.95 1484.27,1391.45 1487.24,1390.88 1490.18,1390.24 1493.1,1389.53 1495.99,1388.74 1498.85,1387.89 1501.68,1386.97 1504.48,1385.99 1507.25,1384.94 1509.99,1383.82 1512.69,1382.64 1515.35,1381.39 1517.98,1380.08 1520.58,1378.71 1523.14,1377.29 1525.65,1375.8 1528.13,1374.25 1530.57,1372.64 1532.97,1370.98 1535.32,1369.26 1537.63,1367.49 1539.9,1365.67 1542.12,1363.79 1544.3,1361.86 1546.43,1359.88 "/>
     <polygon id="_237490728" class="fil1" points="1462.82,1393.34 2598.7,2529.22 2595.57,2529.18 2592.46,2529.07 2589.38,2528.87 2586.31,2528.6 2583.27,2528.25 2580.25,2527.83 2577.25,2527.33 2574.28,2526.76 2571.34,2526.12 2568.42,2525.41 2565.53,2524.63 2562.67,2523.78 2559.84,2522.86 2557.04,2521.87 2554.27,2520.82 2551.53,2519.7 2548.83,2518.52 2546.16,2517.27 2543.53,2515.96 2540.94,2514.6 2538.38,2513.17 2535.87,2511.68 2533.39,2510.13 2530.95,2508.53 2528.55,2506.86 2526.2,2505.15 2523.89,2503.38 2521.62,2501.55 2519.4,2499.67 2517.22,2497.74 2515.09,2495.76 2513.01,2493.73 1377.13,1357.85 1379.21,1359.88 1381.34,1361.86 1383.52,1363.79 1385.74,1365.67 1388,1367.49 1390.32,1369.26 1392.67,1370.98 1395.07,1372.64 1397.51,1374.25 1399.98,1375.8 1402.5,1377.28 1405.06,1378.71 1407.65,1380.08 1410.28,1381.39 1412.95,1382.63 1415.65,1383.82 1418.39,1384.93 1421.15,1385.99 1423.95,1386.97 1426.79,1387.89 1429.65,1388.74 1432.54,1389.53 1435.45,1390.24 1438.4,1390.88 1441.37,1391.45 1444.37,1391.95 1447.39,1392.37 1450.43,1392.72 1453.5,1392.99 1456.58,1393.18 1459.69,1393.3 "/>
     <polygon id="_237490344" class="fil1" points="1000.45,1046.66 2136.33,2182.54 2132.39,2182.02 2128.48,2181.43 2124.59,2180.75 2120.73,2180.01 2116.9,2179.18 2113.09,2178.29 2109.32,2177.32 2105.57,2176.27 2101.85,2175.16 2098.17,2173.98 2094.51,2172.72 2090.89,2171.4 2087.31,2170 2083.75,2168.54 2080.23,2167.01 2076.75,2165.42 2073.31,2163.76 2069.9,2162.04 2066.53,2160.25 2063.2,2158.4 2059.91,2156.49 2056.66,2154.51 2053.46,2152.48 2050.29,2150.39 2047.17,2148.23 2044.09,2146.02 2041.06,2143.75 2038.07,2141.43 2035.13,2139.04 2032.23,2136.61 2029.38,2134.12 2026.59,2131.57 890.705,995.691 893.503,998.235 896.35,1000.73 899.245,1003.16 902.187,1005.54 905.175,1007.87 908.208,1010.14 911.287,1012.35 914.409,1014.5 917.574,1016.6 920.782,1018.63 924.031,1020.61 927.321,1022.52 930.652,1024.37 934.02,1026.16 937.427,1027.88 940.873,1029.54 944.353,1031.13 947.872,1032.66 951.425,1034.12 955.012,1035.51 958.633,1036.84 962.286,1038.09 965.971,1039.28 969.688,1040.39 973.436,1041.43 977.213,1042.4 981.018,1043.3 984.852,1044.12 988.713,1044.87 992.6,1045.54 996.513,1046.14 "/>
     <polygon id="_237490608" class="fil1" points="890.705,995.691 2026.59,2131.57 1820.04,2338.12 684.162,1202.23 "/>
     <polygon id="_237490656" class="fil1" points="1145.57,1272.16 2281.45,2408.04 2281.41,2411.17 2281.3,2414.28 2281.1,2417.37 2280.83,2420.43 2280.48,2423.48 2280.06,2426.5 2279.56,2429.49 2278.99,2432.46 2278.35,2435.41 2277.64,2438.33 2276.86,2441.22 2276,2444.08 2275.09,2446.91 2274.1,2449.71 2273.05,2452.47 2271.93,2455.21 2270.75,2457.91 2269.5,2460.58 2268.2,2463.21 2266.83,2465.8 2265.4,2468.36 2263.91,2470.88 2262.36,2473.36 2260.76,2475.79 2259.1,2478.19 2257.38,2480.54 2255.61,2482.86 2253.78,2485.12 2251.9,2487.34 2249.97,2489.52 2247.99,2491.65 2245.96,2493.73 1110.08,1357.85 1112.11,1355.77 1114.09,1353.64 1116.02,1351.46 1117.9,1349.24 1119.73,1346.97 1121.5,1344.66 1123.22,1342.31 1124.88,1339.91 1126.48,1337.47 1128.03,1335 1129.52,1332.48 1130.95,1329.92 1132.32,1327.33 1133.62,1324.69 1134.87,1322.03 1136.05,1319.33 1137.17,1316.59 1138.22,1313.82 1139.2,1311.02 1140.12,1308.19 1140.98,1305.33 1141.76,1302.44 1142.47,1299.53 1143.11,1296.58 1143.68,1293.61 1144.18,1290.61 1144.6,1287.59 1144.95,1284.55 1145.22,1281.48 1145.41,1278.4 1145.53,1275.29 "/>
     <polygon id="_237490440" class="fil1" points="1110.08,1357.85 2245.96,2493.73 2243.88,2495.76 2241.75,2497.74 2239.57,2499.67 2237.35,2501.55 2235.09,2503.38 2232.78,2505.15 2230.42,2506.86 2228.02,2508.53 2225.59,2510.13 2223.11,2511.68 2220.59,2513.17 2218.03,2514.6 2215.44,2515.97 2212.81,2517.27 2210.14,2518.52 2207.44,2519.7 2204.7,2520.82 2201.94,2521.87 2199.14,2522.86 2196.31,2523.78 2193.45,2524.63 2190.56,2525.41 2187.64,2526.12 2184.69,2526.76 2181.72,2527.33 2178.73,2527.83 2175.71,2528.25 2172.66,2528.6 2169.6,2528.87 2166.51,2529.07 2163.4,2529.18 2160.27,2529.22 1024.39,1393.34 1027.52,1393.3 1030.63,1393.18 1033.71,1392.99 1036.78,1392.72 1039.82,1392.37 1042.84,1391.95 1045.84,1391.45 1048.81,1390.88 1051.76,1390.24 1054.67,1389.53 1057.56,1388.74 1060.43,1387.89 1063.26,1386.97 1066.06,1385.99 1068.82,1384.94 1071.56,1383.82 1074.26,1382.64 1076.93,1381.39 1079.56,1380.08 1082.15,1378.71 1084.71,1377.29 1087.23,1375.8 1089.7,1374.25 1092.14,1372.64 1094.54,1370.98 1096.89,1369.26 1099.21,1367.49 1101.47,1365.67 1103.69,1363.79 1105.87,1361.86 1108,1359.88 "/>
     <polygon id="_237490536" class="fil1" points="1024.39,1393.34 2160.27,2529.22 2157.15,2529.18 2154.04,2529.07 2150.95,2528.87 2147.88,2528.6 2144.84,2528.25 2141.82,2527.83 2138.82,2527.33 2135.85,2526.76 2132.91,2526.12 2129.99,2525.41 2127.1,2524.63 2124.24,2523.78 2121.41,2522.86 2118.61,2521.87 2115.84,2520.82 2113.1,2519.7 2110.4,2518.52 2107.74,2517.27 2105.11,2515.96 2102.51,2514.6 2099.96,2513.17 2097.44,2511.68 2094.96,2510.13 2092.52,2508.53 2090.12,2506.86 2087.77,2505.15 2085.46,2503.38 2083.19,2501.55 2080.97,2499.67 2078.79,2497.74 942.913,1361.86 945.088,1363.79 947.31,1365.67 949.576,1367.49 951.888,1369.26 954.243,1370.98 956.639,1372.64 959.077,1374.25 961.556,1375.8 964.074,1377.28 966.63,1378.71 969.225,1380.08 971.855,1381.39 974.522,1382.63 977.224,1383.82 979.959,1384.93 982.728,1385.99 985.527,1386.97 988.358,1387.89 991.218,1388.74 994.109,1389.53 997.026,1390.24 999.97,1390.88 1002.94,1391.45 1005.94,1391.95 1008.96,1392.37 1012,1392.72 1015.07,1392.99 1018.16,1393.18 1021.26,1393.3 "/>
     <polygon id="_237491400" class="fil1" points="1048.33,1046.66 2184.21,2182.54 2184.21,2289.22 1048.33,1153.34 "/>
     <polygon id="_237491448" class="fil1" points="1110.08,1186.47 2245.96,2322.36 2247.99,2324.44 2249.97,2326.56 2251.9,2328.74 2253.78,2330.96 2255.61,2333.23 2257.38,2335.54 2259.1,2337.89 2260.76,2340.29 2262.36,2342.73 2263.91,2345.21 2265.4,2347.73 2266.83,2350.28 2268.2,2352.88 2269.5,2355.51 2270.75,2358.17 2271.93,2360.88 2273.05,2363.61 2274.1,2366.38 2275.09,2369.18 2276,2372.01 2276.86,2374.87 2277.64,2377.76 2278.35,2380.68 2278.99,2383.62 2279.56,2386.59 2280.06,2389.59 2280.48,2392.61 2280.83,2395.65 2281.1,2398.72 2281.3,2401.81 2281.41,2404.92 2281.45,2408.04 1145.57,1272.16 1145.53,1269.03 1145.41,1265.93 1145.22,1262.84 1144.95,1259.77 1144.6,1256.73 1144.18,1253.71 1143.68,1250.71 1143.11,1247.74 1142.47,1244.8 1141.76,1241.88 1140.98,1238.99 1140.12,1236.13 1139.2,1233.3 1138.22,1230.5 1137.17,1227.73 1136.05,1224.99 1134.87,1222.29 1133.62,1219.62 1132.31,1216.99 1130.95,1214.4 1129.52,1211.84 1128.03,1209.33 1126.48,1206.85 1124.88,1204.41 1123.21,1202.01 1121.5,1199.66 1119.72,1197.35 1117.9,1195.08 1116.02,1192.86 1114.09,1190.68 1112.11,1188.55 "/>
     <polygon id="_237490800" class="fil1" points="684.162,1202.23 1820.04,2338.12 1821.34,2339.98 1822.6,2341.87 1823.82,2343.79 1825.01,2345.73 1826.17,2347.69 1827.28,2349.68 1828.37,2351.68 1829.41,2353.72 1830.42,2355.77 1831.39,2357.84 1832.32,2359.94 1833.21,2362.06 1834.07,2364.19 1834.88,2366.35 1835.65,2368.53 1836.39,2370.72 1837.08,2372.94 1837.73,2375.17 1838.34,2377.42 1838.91,2379.68 1839.43,2381.97 1839.91,2384.26 1840.35,2386.58 1840.74,2388.91 1841.09,2391.25 1841.39,2393.61 1841.65,2395.98 1841.86,2398.37 1842.03,2400.77 1842.15,2403.18 1842.22,2405.61 1842.24,2408.04 706.364,1272.16 706.34,1269.72 706.268,1267.3 706.149,1264.89 705.983,1262.49 705.771,1260.1 705.513,1257.73 705.21,1255.37 704.861,1253.03 704.468,1250.7 704.031,1248.38 703.55,1246.08 703.026,1243.8 702.459,1241.53 701.851,1239.29 701.199,1237.05 700.506,1234.84 699.773,1232.65 698.999,1230.47 698.186,1228.31 697.332,1226.18 696.439,1224.06 695.508,1221.96 694.538,1219.89 693.531,1217.83 692.486,1215.8 691.404,1213.79 690.285,1211.81 689.131,1209.84 687.941,1207.9 686.716,1205.99 685.457,1204.1 "/>
     <polygon id="_237490824" class="fil1" points="706.364,1272.16 1842.24,2408.04 1842.2,2411.17 1842.09,2414.28 1841.89,2417.37 1841.62,2420.43 1841.27,2423.48 1840.85,2426.5 1840.35,2429.49 1839.78,2432.46 1839.14,2435.41 1838.43,2438.33 1837.65,2441.22 1836.8,2444.08 1835.88,2446.91 1834.89,2449.71 1833.84,2452.47 1832.72,2455.21 1831.54,2457.91 1830.29,2460.58 1828.99,2463.21 1827.62,2465.8 1826.19,2468.36 1824.7,2470.88 1823.15,2473.36 1821.55,2475.79 1819.89,2478.19 1818.17,2480.54 1816.4,2482.86 1814.57,2485.12 1812.69,2487.34 1810.76,2489.52 1808.78,2491.65 1806.75,2493.73 670.868,1357.85 672.899,1355.77 674.88,1353.64 676.811,1351.46 678.689,1349.24 680.515,1346.97 682.287,1344.66 684.004,1342.31 685.666,1339.91 687.271,1337.47 688.818,1335 690.308,1332.48 691.737,1329.92 693.106,1327.33 694.413,1324.69 695.658,1322.03 696.839,1319.33 697.958,1316.59 699.01,1313.82 699.996,1311.02 700.915,1308.19 701.766,1305.33 702.549,1302.44 703.26,1299.53 703.901,1296.58 704.47,1293.61 704.967,1290.61 705.39,1287.59 705.738,1284.55 706.01,1281.48 706.205,1278.4 706.323,1275.29 "/>
     <polygon id="_237491064" class="fil1" points="670.868,1357.85 1806.75,2493.73 1804.67,2495.76 1802.54,2497.74 1800.37,2499.67 1798.14,2501.55 1795.88,2503.38 1793.57,2505.15 1791.21,2506.86 1788.81,2508.53 1786.38,2510.13 1783.9,2511.68 1781.38,2513.17 1778.82,2514.6 1776.23,2515.97 1773.6,2517.27 1770.93,2518.52 1768.23,2519.7 1765.49,2520.82 1762.73,2521.87 1759.93,2522.86 1757.1,2523.78 1754.24,2524.63 1751.35,2525.41 1748.43,2526.12 1745.48,2526.76 1742.51,2527.33 1739.52,2527.83 1736.5,2528.25 1733.45,2528.6 1730.39,2528.87 1727.3,2529.07 1724.19,2529.18 1721.06,2529.22 585.182,1393.34 588.31,1393.3 591.417,1393.18 594.505,1392.99 597.571,1392.72 600.615,1392.37 603.635,1391.95 606.631,1391.45 609.602,1390.88 612.547,1390.24 615.465,1389.53 618.355,1388.74 621.215,1387.89 624.045,1386.97 626.846,1385.99 629.613,1384.94 632.349,1383.82 635.05,1382.64 637.717,1381.39 640.347,1380.08 642.942,1378.71 645.498,1377.29 648.016,1375.8 650.495,1374.25 652.933,1372.64 655.329,1370.98 657.684,1369.26 659.996,1367.49 662.262,1365.67 664.484,1363.79 666.66,1361.86 668.788,1359.88 "/>
     <polygon id="_237491136" class="fil1" points="585.182,1393.34 1721.06,2529.22 1717.94,2529.18 1714.83,2529.07 1711.74,2528.87 1708.67,2528.6 1705.63,2528.25 1702.61,2527.83 1699.61,2527.33 1696.64,2526.76 1693.7,2526.12 1690.78,2525.41 1687.89,2524.63 1685.03,2523.78 1682.2,2522.86 1679.4,2521.87 1676.63,2520.82 1673.9,2519.7 1671.19,2518.52 1668.53,2517.27 1665.9,2515.96 1663.3,2514.6 1660.75,2513.17 1658.23,2511.68 1655.75,2510.13 1653.31,2508.53 1650.91,2506.86 1648.56,2505.15 1646.25,2503.38 1643.98,2501.55 1641.76,2499.67 505.88,1363.79 508.101,1365.67 510.368,1367.49 512.679,1369.26 515.033,1370.98 517.43,1372.64 519.869,1374.25 522.346,1375.8 524.865,1377.28 527.422,1378.71 530.015,1380.08 532.647,1381.39 535.314,1382.63 538.015,1383.82 540.75,1384.93 543.518,1385.99 546.318,1386.97 549.148,1387.89 552.01,1388.74 554.899,1389.53 557.817,1390.24 560.762,1390.88 563.732,1391.45 566.729,1391.95 569.75,1392.37 572.794,1392.72 575.86,1392.99 578.947,1393.18 582.055,1393.3 "/>
    </g>
    <path id="_385674304" class="fil1" d="M1163.49 712.279c35.5985,35.5996 57.6201,84.782 57.6201,139.101 0,39.9225 -11.8961,77.0705 -32.3351,108.09l209.875 209.875c18.6083,-11.6386 40.6028,-18.3662 64.1658,-18.3662 33.4595,0 63.756,13.565 85.6867,35.4957 21.9295,21.9295 35.4957,52.2272 35.4957,85.6867 0,33.4595 -13.5662,63.756 -35.4957,85.6855 -21.9307,21.9307 -52.2272,35.4957 -85.6867,35.4957 -33.4595,0 -63.7571,-13.5662 -85.6867,-35.4957 -21.9307,-21.9295 -35.4957,-52.226 -35.4957,-85.6855 0,-26.0421 8.21812,-50.1697 22.2012,-69.926l-206.166 -206.166c-29.5252,27.2091 -67.3997,45.4996 -109.339,50.589l0 106.686c23.8583,4.78229 45.1866,16.5721 61.7469,33.1311 21.9284,21.9295 35.4933,52.2272 35.4933,85.6867 0,33.4595 -13.5638,63.756 -35.4933,85.6855 -21.9319,21.9307 -52.2272,35.4957 -85.6867,35.4957 -33.4607,0 -63.7583,-13.5662 -85.6879,-35.4957 -21.9295,-21.9295 -35.4945,-52.226 -35.4945,-85.6855 0,-33.4595 13.565,-63.7571 35.4945,-85.6867 16.5591,-16.5591 37.8874,-28.3488 61.7469,-33.1311l0 -106.686c-42.1335,-5.113 -80.1615,-23.5488 -109.746,-50.9658l-206.543 206.543c13.9831,19.7575 22.2012,43.8839 22.2012,69.926 0,33.4595 -13.565,63.756 -35.4957,85.6855 -21.9295,21.9307 -52.2272,35.4957 -85.6855,35.4957 -33.4595,0 -63.7583,-13.5662 -85.6867,-35.4957 -21.9307,-21.9295 -35.4969,-52.226 -35.4969,-85.6855 0,-33.4595 13.5662,-63.7571 35.4969,-85.6867 21.9295,-21.9307 52.2272,-35.4957 85.6867,-35.4957 23.5618,0 45.5563,6.72756 64.1646,18.3662l210.347 -210.347c-20.2488,-30.9236 -32.0233,-67.8969 -32.0233,-107.617 0,-54.3189 22.0193,-103.501 57.6201,-139.101 35.6008,-35.5985 84.782,-57.6201 139.101,-57.6201 54.3178,0 103.5,22.0217 139.101,57.6201z"/>
   </g>
  </g>
  <path class="fil2" d="M1024 -0.0011811c565.541,0 1024,458.461 1024,1024 0,565.541 -458.461,1024 -1024,1024 -565.541,0 -1024,-458.461 -1024,-1024 0,-565.541 458.461,-1024 1024,-1024z"/>
  <polygon class="fil3" points="908.081,978.316 678.727,1207.67 644.874,1173.82 874.228,944.463 "/>
  <polygon class="fil3" points="1173.77,944.463 1403.13,1173.82 1369.27,1207.67 1139.92,978.316 "/>
  <polygon class="fil3" points="1048.33,1024.16 1048.33,1160.36 1000.45,1160.36 1000.45,1024.16 "/>
  <path class="fil4" d="M1024.39 654.658c54.3189,0 103.501,22.0217 139.102,57.6201 35.5985,35.6008 57.6201,84.782 57.6201,139.101 0,54.3189 -22.0217,103.5 -57.6201,139.1 -35.6008,35.5996 -84.7831,57.6201 -139.102,57.6201 -54.3189,0 -103.499,-22.0205 -139.1,-57.6201 -35.6008,-35.5996 -57.6201,-84.7808 -57.6201,-139.1 0,-54.3189 22.0193,-103.5 57.6201,-139.101 35.6008,-35.5985 84.7808,-57.6201 139.1,-57.6201z"/>
  <path class="fil5" d="M585.182 1150.98c33.4595,0 63.756,13.565 85.6867,35.4957 21.9284,21.9284 35.4945,52.2272 35.4945,85.6867 0,33.4595 -13.565,63.756 -35.4945,85.6867 -21.9307,21.9295 -52.2272,35.4945 -85.6867,35.4945 -33.4607,0 -63.7583,-13.5662 -85.6867,-35.4945 -21.9307,-21.9307 -35.4957,-52.2272 -35.4957,-85.6867 0,-33.4595 13.565,-63.756 35.4957,-85.6867 21.9295,-21.9307 52.226,-35.4957 85.6867,-35.4957z"/>
  <path class="fil6" d="M1024.39 1150.98c33.4607,0 63.756,13.565 85.6867,35.4957 21.9295,21.9284 35.4957,52.2272 35.4957,85.6867 0,33.4595 -13.565,63.756 -35.4957,85.6867 -21.9307,21.9295 -52.226,35.4945 -85.6867,35.4945 -33.4595,0 -63.7571,-13.5662 -85.6867,-35.4945 -21.9307,-21.9307 -35.4957,-52.2272 -35.4957,-85.6867 0,-33.4595 13.565,-63.756 35.4957,-85.6867 21.9307,-21.9307 52.2272,-35.4957 85.6867,-35.4957z"/>
  <path class="fil7" d="M1462.82 1150.98c33.4595,0 63.756,13.565 85.6867,35.4957 21.9295,21.9284 35.4957,52.2272 35.4957,85.6867 0,33.4595 -13.565,63.756 -35.4957,85.6867 -21.9307,21.9295 -52.2272,35.4945 -85.6867,35.4945 -33.4595,0 -63.7571,-13.5662 -85.6867,-35.4945 -21.9307,-21.9307 -35.4957,-52.2272 -35.4957,-85.6867 0,-33.4595 13.565,-63.756 35.4957,-85.6867 21.9307,-21.9307 52.2272,-35.4957 85.6867,-35.4957z"/>
 </g>
</svg>
