<?xml version="1.0" encoding="UTF-8"?>
<!DOCTYPE svg PUBLIC "-//W3C//DTD SVG 1.1//EN" "http://www.w3.org/Graphics/SVG/1.1/DTD/svg11.dtd">
<!-- Creator: CorelDRAW -->
<svg xmlns="http://www.w3.org/2000/svg" xml:space="preserve" width="2048px" height="2048px" style="shape-rendering:geometricPrecision; text-rendering:geometricPrecision; image-rendering:optimizeQuality; fill-rule:evenodd; clip-rule:evenodd"
viewBox="0 0 2048 2048"
 xmlns:xlink="http://www.w3.org/1999/xlink">
 <defs>
  <style type="text/css">
   <![CDATA[
    .fil2 {fill:none}
    .fil13 {fill:#004D40}
    .fil12 {fill:#00695C}
    .fil14 {fill:#00796B}
    .fil7 {fill:#00BFA5}
    .fil10 {fill:#03A9F4}
    .fil5 {fill:#263238}
    .fil3 {fill:#424242}
    .fil11 {fill:#455A64}
    .fil8 {fill:#8BC34A}
    .fil9 {fill:#D50000}
    .fil1 {fill:#E6CA75}
    .fil6 {fill:#FF9800}
    .fil0 {fill:#FFE082}
    .fil15 {fill:#00796B;fill-rule:nonzero}
    .fil4 {fill:#00ACC1;fill-rule:nonzero}
   ]]>
  </style>
   <clipPath id="id0">
    <path d="M1024 -0.0011811c565.539,0 1024,458.462 1024,1024 0,565.539 -458.462,1024 -1024,1024 -565.539,0 -1024,-458.462 -1024,-1024 0,-565.539 458.462,-1024 1024,-1024z"/>
   </clipPath>
 </defs>
 <g id="Layer_x0020_1">
  <metadata id="CorelCorpID_0Corel-Layer"/>
  <path class="fil0" d="M1024 -0.0011811c565.539,0 1024,458.462 1024,1024 0,565.539 -458.462,1024 -1024,1024 -565.539,0 -1024,-458.462 -1024,-1024 0,-565.539 458.462,-1024 1024,-1024z"/>
  <g style="clip-path:url(#id0)">
   <g id="_289372760">
    <g>
     <path id="_2926850241" class="fil1" d="M2060.81 2593.76l0 0zm-1135.88 -1135.88l0 0z"/>
     <path id="_292685216" class="fil1" d="M1712.34 2652.68l0 0zm-1135.88 -1135.88l0 0z"/>
     <path id="_292685144" class="fil1" d="M1653.42 2304.21l0 0zm-1135.88 -1135.88l0 0z"/>
     <polygon id="_292684784" class="fil1" points="1497.94,756.212 2633.82,1892.09 2568.42,1892.09 1432.54,756.212 "/>
     <polygon id="_292685432" class="fil1" points="1549.26,826.502 2685.14,1962.38 2686.34,1963.81 2687.49,1965.26 2688.6,1966.75 2689.67,1968.27 2690.7,1969.82 2691.69,1971.4 2692.63,1973.01 2693.52,1974.64 2694.37,1976.31 2695.18,1977.99 2695.93,1979.71 2696.64,1981.45 2697.3,1983.21 1561.42,847.326 1560.76,845.564 1560.05,843.826 1559.29,842.112 1558.49,840.425 1557.64,838.762 1556.74,837.126 1555.8,835.518 1554.82,833.939 1553.79,832.39 1552.72,830.871 1551.61,829.383 1550.46,827.925 "/>
     <polygon id="_292685768" class="fil1" points="1584,1037.98 2719.88,2173.86 2697.3,2173.86 1561.42,1037.98 "/>
     <polygon id="_292686032" class="fil1" points="1561.42,1037.98 2697.3,2173.86 2696.64,2175.63 2695.93,2177.36 2695.18,2179.08 2694.37,2180.76 2693.52,2182.43 2692.63,2184.06 2691.69,2185.67 2690.7,2187.25 2689.67,2188.8 2688.6,2190.32 2687.49,2191.81 2686.34,2193.26 2685.14,2194.69 2683.91,2196.08 2682.64,2197.43 2681.34,2198.75 1545.46,1062.87 1546.76,1061.55 1548.03,1060.19 1549.26,1058.8 1550.46,1057.38 1551.61,1055.92 1552.72,1054.44 1553.79,1052.92 1554.82,1051.37 1555.8,1049.79 1556.74,1048.18 1557.64,1046.54 1558.49,1044.88 1559.29,1043.19 1560.05,1041.48 1560.76,1039.74 "/>
     <polygon id="_292685936" class="fil1" points="1545.46,1062.87 2681.34,2198.75 2680.18,2199.86 2679,2200.94 2677.79,2202 2676.56,2203.02 2675.3,2204.02 2674.02,2204.99 2672.71,2205.93 2671.38,2206.83 2670.03,2207.71 2668.65,2208.56 2667.25,2209.37 2665.83,2210.15 2664.39,2210.9 2662.93,2211.62 2661.46,2212.3 2659.96,2212.94 2658.44,2213.55 2656.9,2214.13 2655.35,2214.67 2653.78,2215.17 2652.2,2215.64 2650.59,2216.07 2648.98,2216.45 2647.35,2216.81 2645.7,2217.12 2644.04,2217.39 2642.37,2217.62 2640.68,2217.81 2638.98,2217.96 2637.27,2218.07 2635.55,2218.13 2633.82,2218.15 1497.94,1082.27 1499.67,1082.25 1501.39,1082.18 1503.1,1082.08 1504.8,1081.93 1506.49,1081.74 1508.16,1081.51 1509.82,1081.24 1511.46,1080.92 1513.1,1080.57 1514.71,1080.18 1516.32,1079.76 1517.9,1079.29 1519.47,1078.79 1521.02,1078.25 1522.56,1077.67 1524.08,1077.06 1525.57,1076.41 1527.05,1075.73 1528.51,1075.02 1529.95,1074.27 1531.37,1073.49 1532.77,1072.67 1534.14,1071.83 1535.5,1070.95 1536.83,1070.05 1538.14,1069.11 1539.42,1068.14 1540.68,1067.14 1541.91,1066.12 1543.12,1065.06 1544.3,1063.98 "/>
     <polygon id="_292685912" class="fil1" points="1497.94,1082.27 2633.82,2218.15 2568.42,2218.15 1432.54,1082.27 "/>
     <polygon id="_292686104" class="fil1" points="1432.54,1082.27 2568.42,2218.15 2568.42,2265.66 1432.54,1129.78 "/>
     <polygon id="_292686200" class="fil1" points="1548.03,1151.86 2683.91,2287.74 2685.14,2289.13 2686.34,2290.55 2687.49,2292.01 2688.6,2293.5 2689.67,2295.02 2690.7,2296.57 2691.69,2298.15 2692.63,2299.75 2693.52,2301.39 2694.37,2303.05 2695.18,2304.74 2695.93,2306.45 2696.64,2308.19 2697.3,2309.95 1561.42,1174.07 1560.76,1172.31 1560.05,1170.57 1559.29,1168.86 1558.49,1167.17 1557.64,1165.51 1556.74,1163.87 1555.8,1162.26 1554.82,1160.69 1553.79,1159.14 1552.72,1157.62 1551.61,1156.13 1550.46,1154.67 1549.26,1153.25 "/>
     <polygon id="_292686248" class="fil1" points="1584,1174.07 2719.88,2309.95 2719.88,2500.61 1584,1364.73 "/>
     <polygon id="_292685552" class="fil1" points="1584,1364.73 2719.88,2500.61 2697.3,2500.61 1561.42,1364.73 "/>
     <polygon id="_292685576" class="fil1" points="1561.42,1364.73 2697.3,2500.61 2696.64,2502.37 2695.93,2504.11 2695.18,2505.82 2694.37,2507.51 2693.52,2509.17 2692.63,2510.81 2691.69,2512.42 2690.7,2514 2689.67,2515.55 2688.6,2517.06 2687.49,2518.55 2686.34,2520.01 2685.14,2521.43 2683.91,2522.82 2682.64,2524.18 2681.34,2525.5 1545.46,1389.62 1546.76,1388.3 1548.03,1386.94 1549.26,1385.55 1550.46,1384.13 1551.61,1382.67 1552.72,1381.18 1553.79,1379.66 1554.82,1378.11 1555.8,1376.53 1556.74,1374.93 1557.64,1373.29 1558.49,1371.63 1559.29,1369.94 1560.05,1368.23 1560.76,1366.49 "/>
     <polygon id="_292685648" class="fil1" points="873.32,756.212 2009.2,1892.09 1943.8,1892.09 807.922,756.212 "/>
     <polygon id="_292685720" class="fil1" points="744.445,1037.98 1880.33,2173.86 1857.74,2173.86 721.863,1037.98 "/>
     <polygon id="_292686536" class="fil1" points="906.209,1409.02 2042.09,2544.9 2042.58,2546.35 2043.09,2547.83 2043.63,2549.33 2044.18,2550.86 2044.76,2552.42 2045.35,2553.99 2045.95,2555.59 2046.57,2557.2 2047.21,2558.82 2047.85,2560.46 2048.5,2562.12 2049.16,2563.78 2049.83,2565.44 2050.5,2567.12 2051.17,2568.8 2051.85,2570.47 915.968,1434.59 915.292,1432.91 914.619,1431.23 913.948,1429.56 913.282,1427.89 912.622,1426.23 911.969,1424.58 911.326,1422.94 910.693,1421.32 910.073,1419.71 909.467,1418.11 908.877,1416.54 908.303,1414.98 907.748,1413.45 907.213,1411.95 906.699,1410.47 "/>
     <polygon id="_292686512" class="fil1" points="915.968,1434.59 2051.85,2570.47 2052.46,2572 2053.07,2573.52 2053.68,2575.04 2054.29,2576.55 2054.89,2578.06 2055.48,2579.56 2056.07,2581.05 2056.65,2582.52 2057.21,2583.99 2057.77,2585.44 2058.32,2586.88 2058.85,2588.29 2059.37,2589.69 2059.87,2591.07 2060.35,2592.42 2060.82,2593.76 924.939,1457.87 924.472,1456.54 923.988,1455.19 923.486,1453.81 922.968,1452.41 922.437,1450.99 921.891,1449.56 921.334,1448.11 920.764,1446.64 920.187,1445.16 919.6,1443.67 919.006,1442.18 918.406,1440.67 917.801,1439.16 917.192,1437.64 916.581,1436.12 "/>
     <polygon id="_292686560" class="fil1" points="924.939,1457.87 2060.82,2593.76 2061.17,2594.92 2061.44,2596.08 2061.62,2597.25 2061.71,2598.41 2061.72,2599.57 2061.65,2600.72 2061.51,2601.85 2061.28,2602.97 2060.98,2604.07 2060.61,2605.14 2060.17,2606.18 2059.65,2607.19 2059.07,2608.16 2058.42,2609.09 2057.71,2609.98 2056.94,2610.82 921.06,1474.94 921.832,1474.1 922.543,1473.21 923.19,1472.28 923.772,1471.31 924.285,1470.3 924.729,1469.25 925.103,1468.18 925.401,1467.09 925.626,1465.97 925.774,1464.84 925.842,1463.69 925.83,1462.53 925.736,1461.36 925.557,1460.2 925.292,1459.03 "/>
     <polygon id="_292686392" class="fil1" points="921.06,1474.94 2056.94,2610.82 2055.91,2612.09 2054.78,2613.48 2053.56,2614.98 2052.24,2616.57 2050.84,2618.25 2049.37,2620 2047.81,2621.81 2046.19,2623.67 2044.51,2625.57 2042.77,2627.49 2040.98,2629.43 2039.15,2631.36 2037.27,2633.29 2035.36,2635.2 2033.42,2637.07 2031.45,2638.9 2029.47,2640.68 2027.47,2642.38 2025.47,2644 2023.46,2645.53 2021.46,2646.96 2019.47,2648.27 2017.49,2649.46 2015.53,2650.51 2013.6,2651.4 2011.7,2652.13 2009.83,2652.69 2008.01,2653.07 2006.24,2653.24 2004.52,2653.21 2002.85,2652.95 2001.26,2652.46 865.374,1516.58 866.972,1517.07 868.635,1517.32 870.356,1517.36 872.131,1517.18 873.953,1516.81 875.818,1516.25 877.718,1515.52 879.65,1514.62 881.609,1513.58 883.587,1512.39 885.579,1511.08 887.581,1509.65 889.587,1508.12 891.59,1506.5 893.586,1504.79 895.569,1503.02 897.535,1501.19 899.476,1499.32 901.387,1497.41 903.264,1495.48 905.101,1493.54 906.891,1491.61 908.631,1489.69 910.313,1487.79 911.932,1485.93 913.484,1484.12 914.963,1482.37 916.361,1480.69 917.677,1479.1 918.902,1477.6 920.031,1476.21 "/>
     <polygon id="_292686920" class="fil1" points="865.374,1516.58 2001.26,2652.46 1999.95,2652 1998.63,2651.53 1997.28,2651.04 1995.92,2650.53 1994.54,2650.01 1993.14,2649.48 1991.73,2648.93 1990.3,2648.38 1988.86,2647.82 1987.42,2647.25 1985.96,2646.67 1984.5,2646.09 1983.03,2645.5 1981.56,2644.91 1980.08,2644.32 1978.6,2643.72 842.721,1507.84 844.198,1508.43 845.675,1509.03 847.149,1509.62 848.617,1510.2 850.08,1510.79 851.536,1511.36 852.983,1511.94 854.42,1512.5 855.845,1513.05 857.258,1513.6 858.655,1514.13 860.037,1514.65 861.401,1515.15 862.746,1515.64 864.072,1516.12 "/>
     <polygon id="_292686656" class="fil1" points="842.721,1507.84 1978.6,2643.72 1976.81,2643 1975.01,2642.28 1973.22,2641.56 1971.44,2640.85 1969.66,2640.15 1967.9,2639.45 1966.15,2638.77 1964.42,2638.1 1962.71,2637.44 1961.01,2636.8 1959.34,2636.19 1957.7,2635.59 1956.09,2635.01 1954.5,2634.46 1952.95,2633.94 1951.44,2633.44 1949.96,2632.98 1948.52,2632.54 1947.12,2632.14 1945.77,2631.78 1944.47,2631.46 1943.22,2631.17 1942.02,2630.93 1940.87,2630.73 1939.78,2630.57 1938.75,2630.47 1937.78,2630.41 1936.87,2630.41 1936.03,2630.45 1935.26,2630.56 1934.56,2630.72 1933.94,2630.93 798.057,1495.05 798.683,1494.83 799.383,1494.67 800.153,1494.57 800.992,1494.52 801.897,1494.53 802.867,1494.59 803.898,1494.69 804.988,1494.85 806.135,1495.05 807.336,1495.29 808.589,1495.57 809.893,1495.9 811.243,1496.26 812.638,1496.66 814.077,1497.09 815.554,1497.56 817.07,1498.05 818.621,1498.58 820.205,1499.13 821.82,1499.71 823.463,1500.3 825.132,1500.92 826.824,1501.56 828.538,1502.22 830.271,1502.89 832.019,1503.57 833.781,1504.26 835.556,1504.97 837.34,1505.68 839.129,1506.4 840.924,1507.12 "/>
     <polygon id="_292686584" class="fil1" points="798.057,1495.05 1933.94,2630.93 1933.36,2631.22 1932.77,2631.6 1932.16,2632.07 1931.55,2632.62 1930.93,2633.25 1930.3,2633.96 1929.66,2634.74 1929.01,2635.6 1928.36,2636.53 1927.69,2637.52 1927.02,2638.58 1926.34,2639.7 1925.66,2640.88 1924.96,2642.11 1924.26,2643.4 1923.56,2644.73 1922.85,2646.12 1922.13,2647.54 1921.41,2649.01 1920.68,2650.52 1919.95,2652.06 1919.22,2653.64 1918.48,2655.24 1917.74,2656.87 1916.99,2658.53 1916.25,2660.21 1915.49,2661.91 1914.74,2663.62 1913.99,2665.34 1913.23,2667.08 1912.47,2668.82 1911.71,2670.57 775.832,1534.69 776.592,1532.94 777.349,1531.2 778.106,1529.46 778.861,1527.74 779.613,1526.02 780.364,1524.33 781.112,1522.65 781.857,1520.99 782.6,1519.36 783.338,1517.75 784.073,1516.18 784.803,1514.64 785.529,1513.13 786.251,1511.66 786.967,1510.23 787.678,1508.85 788.383,1507.51 789.081,1506.23 789.774,1504.99 790.46,1503.82 791.14,1502.7 791.81,1501.64 792.475,1500.65 793.131,1499.72 793.779,1498.86 794.418,1498.08 795.049,1497.37 795.67,1496.74 796.282,1496.19 796.884,1495.72 797.476,1495.34 "/>
     <polygon id="_292686992" class="fil1" points="465.816,1282.65 1601.7,2418.53 1601.68,2418.53 465.802,1282.65 "/>
     <polygon id="_292686608" class="fil1" points="536.259,1386.29 1672.14,2522.17 1671.36,2521.53 1670.5,2520.89 1669.57,2520.23 1668.58,2519.57 1667.52,2518.89 1666.4,2518.21 1665.22,2517.53 1663.99,2516.84 1662.7,2516.14 1661.37,2515.43 1659.98,2514.72 1658.56,2514.01 1657.09,2513.28 1655.58,2512.56 1654.04,2511.83 1652.46,2511.09 1650.86,2510.35 1649.23,2509.61 1647.57,2508.87 1645.89,2508.12 1644.19,2507.37 1642.48,2506.61 1640.75,2505.86 1639.02,2505.1 1637.28,2504.35 1635.53,2503.59 499.647,1367.7 501.395,1368.46 503.138,1369.22 504.873,1369.98 506.6,1370.73 508.313,1371.49 510.01,1372.24 511.688,1372.98 513.345,1373.73 514.978,1374.47 516.583,1375.21 518.158,1375.95 519.701,1376.68 521.208,1377.4 522.676,1378.12 524.103,1378.84 525.486,1379.55 526.822,1380.25 528.108,1380.95 529.341,1381.65 530.519,1382.33 531.638,1383.01 532.696,1383.68 533.69,1384.35 534.617,1385 535.474,1385.65 "/>
     <polygon id="_292686824" class="fil1" points="499.647,1367.7 1635.53,2503.59 1633.36,2502.68 1630.97,2501.75 1628.42,2500.77 1625.76,2499.73 1623.02,2498.63 1620.26,2497.45 1617.53,2496.17 1614.86,2494.8 1612.31,2493.31 1609.92,2491.69 1607.74,2489.93 471.854,1354.05 474.035,1355.8 476.424,1357.42 478.976,1358.91 481.644,1360.29 484.382,1361.56 487.143,1362.75 489.878,1363.85 492.544,1364.89 495.091,1365.87 497.475,1366.8 "/>
     <polygon id="_292687640" class="fil1" points="646.182,1496.19 1782.06,2632.07 1781.46,2631.6 1780.87,2631.22 1780.29,2630.93 644.406,1495.05 644.988,1495.34 645.579,1495.72 "/>
     <polygon id="_292687592" class="fil1" points="599.744,1507.84 1735.63,2643.72 1734.1,2644.33 1732.58,2644.94 1731.06,2645.55 1729.55,2646.16 1728.04,2646.76 1726.54,2647.35 1725.05,2647.94 1723.57,2648.52 1722.11,2649.09 1720.66,2649.65 1719.22,2650.19 1717.81,2650.72 1716.41,2651.24 1715.03,2651.74 1713.67,2652.23 1712.34,2652.69 576.462,1516.81 577.793,1516.34 579.149,1515.86 580.526,1515.36 581.925,1514.84 583.342,1514.31 584.777,1513.76 586.229,1513.21 587.693,1512.64 589.172,1512.06 590.661,1511.47 592.16,1510.88 593.667,1510.28 595.18,1509.67 596.699,1509.06 598.221,1508.45 "/>
     <polygon id="_292687352" class="fil1" points="576.462,1516.81 1712.34,2652.69 1711.18,2653.05 1710.02,2653.31 1708.85,2653.49 1707.69,2653.58 1706.53,2653.6 1705.38,2653.53 1704.25,2653.38 1703.13,2653.16 1702.03,2652.86 1700.96,2652.48 1699.92,2652.04 1698.91,2651.53 1697.94,2650.94 1697.01,2650.3 1696.12,2649.59 560.236,1513.7 561.124,1514.42 562.056,1515.06 563.03,1515.64 564.039,1516.16 565.081,1516.6 566.152,1516.97 567.248,1517.27 568.366,1517.5 569.5,1517.65 570.649,1517.71 571.806,1517.7 572.971,1517.61 574.138,1517.43 575.302,1517.16 "/>
     <polygon id="_292687496" class="fil1" points="559.395,1512.93 1695.28,2648.81 1693.91,2647.7 1692.56,2646.59 1691.23,2645.48 555.348,1509.6 556.682,1510.71 558.031,1511.82 "/>
     <polygon id="_292687304" class="fil1" points="644.406,1495.05 1780.29,2630.93 1779.66,2630.72 1778.96,2630.56 1778.19,2630.45 1777.35,2630.41 1776.45,2630.41 1775.48,2630.47 1774.45,2630.57 1773.36,2630.73 1772.21,2630.93 1771.01,2631.17 1769.76,2631.46 1768.45,2631.78 1767.1,2632.14 1765.71,2632.54 1764.27,2632.98 1762.79,2633.44 1761.28,2633.94 1759.72,2634.46 1758.14,2635.01 1756.52,2635.59 1754.88,2636.19 1753.21,2636.8 1751.52,2637.44 1749.81,2638.1 1748.08,2638.77 1746.33,2639.45 1744.56,2640.15 1742.79,2640.85 1741.01,2641.56 1739.22,2642.28 1737.42,2643 1735.63,2643.72 599.744,1507.84 601.541,1507.12 603.336,1506.4 605.125,1505.68 606.909,1504.97 608.683,1504.26 610.445,1503.57 612.194,1502.89 613.926,1502.22 615.639,1501.56 617.332,1500.92 619.001,1500.3 620.644,1499.71 622.258,1499.13 623.843,1498.58 625.394,1498.05 626.91,1497.56 628.387,1497.09 629.826,1496.66 631.221,1496.26 632.571,1495.9 633.875,1495.57 635.128,1495.29 636.329,1495.05 637.476,1494.85 638.566,1494.69 639.597,1494.59 640.567,1494.53 641.471,1494.52 642.311,1494.57 643.081,1494.67 643.78,1494.83 "/>
     <polygon id="_292687136" class="fil1" points="750.918,1568.61 1886.8,2704.49 1885.02,2704.69 1883.08,2704.91 1880.99,2705.14 1878.76,2705.37 1876.41,2705.6 1873.95,2705.83 1871.38,2706.05 1868.74,2706.25 1866.02,2706.44 1863.24,2706.6 1860.41,2706.73 1857.55,2706.83 1854.67,2706.89 1851.78,2706.9 1848.89,2706.87 1846.03,2706.79 1843.19,2706.65 1840.4,2706.44 1837.67,2706.17 1835.01,2705.82 1832.43,2705.4 1829.95,2704.9 1827.57,2704.31 1825.32,2703.63 1823.21,2702.85 1821.24,2701.97 1819.43,2700.98 1817.8,2699.89 1816.35,2698.67 680.474,1562.79 681.919,1564 683.552,1565.1 685.359,1566.09 687.327,1566.96 689.442,1567.74 691.693,1568.43 694.067,1569.02 696.55,1569.52 699.128,1569.94 701.79,1570.29 704.523,1570.56 707.313,1570.76 710.147,1570.91 713.012,1570.99 715.896,1571.02 718.785,1571 721.666,1570.95 724.527,1570.85 727.354,1570.71 730.134,1570.55 732.856,1570.37 735.504,1570.17 738.067,1569.95 740.53,1569.72 742.883,1569.49 745.111,1569.25 747.201,1569.03 749.142,1568.81 "/>
     <polygon id="_292687184" class="fil1" points="775.832,1534.69 1911.71,2670.57 1910.81,2672.74 1909.87,2675.13 1908.9,2677.67 1907.86,2680.34 1906.76,2683.08 1905.57,2685.84 1904.3,2688.57 1902.92,2691.24 1901.43,2693.79 1899.81,2696.18 1898.06,2698.36 1896.15,2700.29 1894.09,2701.91 1891.85,2703.18 1889.42,2704.06 1886.8,2704.49 750.918,1568.61 753.54,1568.17 755.965,1567.3 758.206,1566.03 760.273,1564.4 762.178,1562.48 763.933,1560.3 765.551,1557.91 767.043,1555.36 768.419,1552.69 769.693,1549.95 770.875,1547.19 771.979,1544.46 773.014,1541.79 773.994,1539.24 774.929,1536.86 "/>
     <polygon id="_292687736" class="fil1" points="744.445,711.922 1880.33,1847.8 1857.74,1847.8 721.863,711.922 "/>
     <polygon id="_292687280" class="fil1" points="1545.46,1389.62 2681.34,2525.5 2680.18,2526.61 2679,2527.69 2677.79,2528.74 2676.56,2529.77 2675.3,2530.77 2674.02,2531.74 2672.71,2532.67 2671.38,2533.58 2670.03,2534.46 2668.65,2535.3 2667.25,2536.12 2665.83,2536.9 2664.39,2537.65 2662.93,2538.36 2661.46,2539.04 2659.96,2539.69 2658.44,2540.3 2656.9,2540.88 2655.35,2541.41 2653.78,2541.92 2652.2,2542.38 2650.59,2542.81 2648.98,2543.2 2647.35,2543.55 2645.7,2543.86 2644.04,2544.14 2642.37,2544.37 2640.68,2544.56 2638.98,2544.71 2637.27,2544.81 2635.55,2544.88 2633.82,2544.9 1497.94,1409.02 1499.67,1409 1501.39,1408.93 1503.1,1408.82 1504.8,1408.67 1506.49,1408.48 1508.16,1408.25 1509.82,1407.98 1511.46,1407.67 1513.1,1407.32 1514.71,1406.93 1516.32,1406.5 1517.9,1406.03 1519.47,1405.53 1521.02,1404.99 1522.56,1404.42 1524.08,1403.81 1525.57,1403.16 1527.05,1402.48 1528.51,1401.76 1529.95,1401.02 1531.37,1400.23 1532.77,1399.42 1534.14,1398.58 1535.5,1397.7 1536.83,1396.79 1538.14,1395.85 1539.42,1394.89 1540.68,1393.89 1541.91,1392.86 1543.12,1391.81 1544.3,1390.73 "/>
     <polygon id="_292687424" class="fil1" points="807.922,756.212 1943.8,1892.09 1942.07,1892.07 1940.35,1892.01 1938.64,1891.9 1936.94,1891.75 1935.26,1891.56 1933.59,1891.33 1931.93,1891.06 1930.28,1890.75 1928.65,1890.4 1927.03,1890.01 1925.43,1889.58 1923.84,1889.11 1922.27,1888.61 1920.72,1888.07 1919.19,1887.5 1917.67,1886.88 1916.17,1886.24 1914.69,1885.56 1913.23,1884.84 1911.79,1884.09 1910.37,1883.31 1908.98,1882.5 1907.6,1881.65 1906.25,1880.78 1904.92,1879.87 1903.61,1878.93 1902.33,1877.96 1901.07,1876.97 1899.83,1875.94 1898.63,1874.89 1897.44,1873.8 1896.29,1872.69 760.407,736.812 761.562,737.921 762.745,739.003 763.953,740.057 765.186,741.083 766.445,742.08 767.728,743.047 769.035,743.986 770.365,744.893 771.719,745.771 773.095,746.616 774.492,747.429 775.91,748.211 777.35,748.959 778.81,749.675 780.289,750.355 781.788,751.001 783.304,751.613 784.84,752.188 786.392,752.728 787.961,753.23 789.547,753.696 791.149,754.124 792.766,754.514 794.398,754.864 796.045,755.176 797.704,755.448 799.378,755.679 801.063,755.869 802.762,756.018 804.471,756.126 806.19,756.191 "/>
     <polygon id="_292687568" class="fil1" points="1497.94,1409.02 2633.82,2544.9 2042.09,2544.9 906.209,1409.02 "/>
     <polygon id="_292688480" class="fil1" points="1550.46,501.866 2686.34,1637.75 2687.49,1639.21 2688.6,1640.69 2689.67,1642.21 2690.7,1643.76 2691.69,1645.34 2692.63,1646.95 2693.52,1648.59 2694.37,1650.25 2695.18,1651.94 2695.93,1653.65 2696.64,1655.39 2697.3,1657.15 1561.42,521.267 1560.76,519.505 1560.05,517.767 1559.29,516.054 1558.49,514.366 1557.64,512.703 1556.74,511.067 1555.8,509.459 1554.82,507.88 1553.79,506.331 1552.72,504.812 1551.61,503.324 "/>
     <polygon id="_292688192" class="fil1" points="1584,521.267 2719.88,1657.15 2719.88,1847.8 1584,711.922 "/>
     <polygon id="_292688288" class="fil1" points="1584,711.922 2719.88,1847.8 2697.3,1847.8 1561.42,711.922 "/>
     <polygon id="_292688096" class="fil1" points="1561.42,711.922 2697.3,1847.8 2696.64,1849.57 2695.93,1851.3 2695.18,1853.02 2694.37,1854.71 2693.52,1856.37 2692.63,1858 2691.69,1859.61 2690.7,1861.19 2689.67,1862.74 2688.6,1864.26 2687.49,1865.75 2686.34,1867.2 2685.14,1868.63 2683.91,1870.02 2682.64,1871.37 2681.34,1872.69 1545.46,736.812 1546.76,735.492 1548.03,734.136 1549.26,732.746 1550.46,731.323 1551.61,729.866 1552.72,728.377 1553.79,726.858 1554.82,725.308 1555.8,723.729 1556.75,722.122 1557.64,720.486 1558.49,718.824 1559.3,717.135 1560.05,715.421 1560.76,713.684 "/>
     <polygon id="_292688120" class="fil1" points="1545.46,736.812 2681.34,1872.69 2680.18,1873.8 2679,1874.89 2677.79,1875.94 2676.56,1876.97 2675.3,1877.96 2674.02,1878.93 2672.71,1879.87 2671.38,1880.78 2670.03,1881.65 2668.65,1882.5 2667.25,1883.31 2665.83,1884.09 2664.39,1884.84 2662.93,1885.56 2661.46,1886.24 2659.96,1886.88 2658.44,1887.5 2656.9,1888.07 2655.35,1888.61 2653.78,1889.11 2652.2,1889.58 2650.59,1890.01 2648.98,1890.4 2647.35,1890.75 2645.7,1891.06 2644.04,1891.33 2642.37,1891.56 2640.68,1891.75 2638.98,1891.9 2637.27,1892.01 2635.55,1892.07 2633.82,1892.09 1497.94,756.212 1499.67,756.191 1501.39,756.126 1503.1,756.018 1504.8,755.869 1506.49,755.679 1508.16,755.448 1509.82,755.176 1511.46,754.864 1513.1,754.514 1514.71,754.124 1516.32,753.696 1517.9,753.23 1519.47,752.728 1521.02,752.188 1522.56,751.613 1524.08,751.001 1525.57,750.355 1527.05,749.675 1528.51,748.959 1529.95,748.211 1531.37,747.429 1532.77,746.616 1534.14,745.771 1535.5,744.893 1536.83,743.986 1538.14,743.047 1539.42,742.08 1540.68,741.083 1541.91,740.057 1543.12,739.003 1544.3,737.921 "/>
     <polygon id="_292688456" class="fil1" points="1432.54,756.212 2568.42,1892.09 2568.42,1938.92 1432.54,803.036 "/>
     <polygon id="_292687952" class="fil1" points="1584,847.326 2719.88,1983.21 2719.88,2173.86 1584,1037.98 "/>
    </g>
    <path id="_289372424" class="fil1" d="M924.928 1457.88l0 0zm-348.47 58.9217l0 0zm-58.9229 -348.47l0 0zm980.405 -365.294c18.5185,0 35.3362,7.43032 47.5158,19.3984 7.0689,6.94961 12.5811,15.4347 15.9614,24.8918l22.5827 0 0 190.655 -22.5827 0c-3.38032,9.45709 -8.89253,17.9421 -15.9614,24.8906 -12.1784,11.9705 -28.9973,19.3996 -47.5158,19.3996l-65.3965 0 0 47.5111 65.3965 0c18.5185,0 35.3362,7.42914 47.5158,19.3984 7.0689,6.94843 12.5811,15.4347 15.9614,24.8918l22.5827 0 0 190.655 -22.5827 0c-3.38032,9.45709 -8.89253,17.9421 -15.9614,24.8906 -12.1784,11.9693 -28.9973,19.3996 -47.5158,19.3996l-591.732 0c2.55,7.65237 6.15709,16.6193 9.75946,25.5744 3.26811,8.12599 6.53386,16.2473 8.97048,23.2819 2.12244,6.163 0.4063,12.7193 -3.87874,17.0669 -10.4126,12.8658 -38.9988,48.1347 -55.6855,41.6398 -6.89056,-2.40118 -14.7697,-5.57126 -22.6536,-8.74135 -19.1681,-7.70906 -38.3882,-15.4406 -44.6634,-12.7866 -6.14528,2.59961 -14.126,20.9811 -22.2248,39.6366 -4.7504,10.9417 -10.3854,32.8725 -24.9142,33.9177 -18.0319,2.06929 -66.1831,7.45749 -73.5272,-10.1929 -3.5563,-7.13504 -7.16812,-15.4524 -10.7599,-23.726 -8.09883,-18.6543 -16.0795,-37.0359 -22.2248,-39.6355 -6.2752,-2.65394 -25.4953,5.07756 -44.6622,12.7866 -8.12599,3.26929 -16.2473,6.53504 -23.2819,8.97166 -6.163,2.12244 -12.7193,0.4063 -17.0669,-3.87874 -7.31457,-5.91851 -14.002,-11.9102 -20.0351,-17.9433 -8.42953,-8.42835 -26.9799,-23.9197 -21.6083,-37.7362 2.40355,-6.8941 5.57363,-14.7756 8.74607,-22.663 7.70906,-19.1669 15.4382,-38.3847 12.7854,-44.6599 -2.59961,-6.1441 -20.9811,-14.126 -39.6366,-22.226 -10.9417,-4.74922 -32.8725,-10.3843 -33.9189,-24.913 -0.52441,-4.57205 -0.941339,-9.39568 -1.24252,-14.4768 -0.320079,-5.43308 -0.486615,-10.5142 -0.486615,-15.2102 0,-4.69489 0.166536,-9.77245 0.486615,-15.2055 0.318898,-5.36693 0.765355,-10.4469 1.3311,-15.2492l-0.0141732 -0.00236221c0.728741,-6.17363 4.75985,-11.1532 10.1197,-13.3831 7.13504,-3.5563 15.4524,-7.16812 23.726,-10.7599 18.6543,-8.09883 37.0359,-16.0807 39.6343,-22.2248 2.65394,-6.27638 -5.07638,-25.4941 -12.7854,-44.6622 -3.26929,-8.12717 -6.53623,-16.2473 -8.97166,-23.2819 -2.12244,-6.163 -0.4063,-12.7193 3.87874,-17.0669 5.91851,-7.31457 11.9102,-14.002 17.9421,-20.0351 8.42953,-8.42953 23.9209,-26.9799 37.7374,-21.6083 6.8941,2.40355 14.7756,5.57363 22.663,8.74607 19.1669,7.70906 38.3847,15.4394 44.6599,12.7854 6.1441,-2.59961 14.126,-20.9811 22.2248,-39.6366 9.2882,-21.3957 9.25749,-30.378 27.0544,-33.7772 13.5284,-2.58189 49.702,-5.45197 65.1083,3.4878 -6.29646,-6.62599 -11.2299,-14.524 -14.3492,-23.2488l-22.5815 0 0 -190.655 22.5815 0c3.3815,-9.45709 8.89371,-17.9421 15.9626,-24.8918 12.1795,-11.9681 28.9973,-19.3984 47.5146,-19.3984l65.3977 0 0 -46.8237 -65.3977 0c-18.5173,0 -35.3362,-7.42914 -47.5146,-19.3996 -7.0689,-6.94725 -12.5811,-15.4335 -15.9626,-24.8906l-22.5815 0 0 -190.655 22.5815 0c3.3815,-9.45709 8.89371,-17.9421 15.9626,-24.8918 12.1795,-11.9681 28.9973,-19.3984 47.5146,-19.3984l690.018 0c18.5185,0 35.3362,7.43032 47.5158,19.3984 7.0689,6.94961 12.5811,15.4347 15.9614,24.8918l22.5827 0 0 190.655 -22.5815 0c-3.3815,9.45709 -8.89371,17.9433 -15.9626,24.8906 -12.1784,11.9705 -28.9973,19.3996 -47.5158,19.3996l-65.3965 0 0 46.8237 65.3965 0z"/>
   </g>
  </g>
  <path class="fil2" d="M1024 -0.0011811c565.539,0 1024,458.462 1024,1024 0,565.539 -458.462,1024 -1024,1024 -565.539,0 -1024,-458.462 -1024,-1024 0,-565.539 458.462,-1024 1024,-1024z"/>
  <rect class="fil3" x="1316.04" y="709.987" width="116.505" height="559.224"/>
  <rect class="fil3" x="873.32" y="709.987" width="116.505" height="559.224"/>
  <path class="fil4" d="M807.923 1129.78l690.017 0c18.5185,0 35.3374,7.43032 47.5158,19.3984 12.176,11.9705 19.7351,28.5024 19.7351,46.7044l0 147.03c0,18.202 -7.55906,34.7339 -19.7351,46.7032 -12.1784,11.9693 -28.9973,19.3996 -47.5158,19.3996l-690.017 0c-18.5185,0 -35.3374,-7.43032 -47.5158,-19.3996 -12.176,-11.9693 -19.7362,-28.5012 -19.7362,-46.7032l0 -147.03c0,-18.202 7.56024,-34.7339 19.7362,-46.7044 12.1784,-11.9681 28.9973,-19.3984 47.5158,-19.3984z"/>
  <rect class="fil5" x="721.863" y="1174.07" width="862.137" height="190.655"/>
  <rect class="fil6" x="776.391" y="1257.5" width="57.0072" height="23.7958"/>
  <rect class="fil7" x="867.033" y="1257.5" width="57.0072" height="23.7958"/>
  <rect class="fil8" x="957.675" y="1257.5" width="57.0072" height="23.7958"/>
  <rect class="fil9" x="1048.32" y="1257.5" width="57.0072" height="23.7958"/>
  <rect class="fil10" x="1225.94" y="1257.5" width="57.0072" height="23.7958"/>
  <rect class="fil11" x="1376.51" y="1274.63" width="152.967" height="23.7958"/>
  <rect class="fil11" x="1376.51" y="1240.37" width="152.967" height="23.7958"/>
  <path class="fil12" d="M765.073 1067.79c3.55748,7.13623 7.1693,15.4536 10.7599,23.7248 8.09883,18.6555 16.0795,37.037 22.2248,39.6355 6.2752,2.65394 25.4953,-5.07638 44.6634,-12.7866 11.2819,-4.5378 29.5595,-15.7252 40.3477,-5.09174 7.31457,5.91851 14.002,11.9091 20.0339,17.9421 6.40394,6.40394 12.763,13.5473 19.0394,21.3933l0.0649607 -0.0507874c3.83268,4.79055 4.57914,11.0551 2.5063,16.3902 -2.40236,6.8941 -5.57363,14.7756 -8.74607,22.663 -7.70906,19.1681 -15.4406,38.3894 -12.7866,44.6646 2.59961,6.1441 20.9811,14.126 39.6366,22.2248 10.9417,4.7504 32.8725,10.3854 33.9189,24.9142 1.54016,13.4315 8.50276,65.7461 -10.1941,73.5272 -7.13623,3.55748 -15.4536,7.16812 -23.7248,10.7599 -18.6555,8.09883 -37.037,16.0795 -39.6355,22.2236 -2.65394,6.27638 5.07638,25.4953 12.7866,44.6634 3.26811,8.12599 6.53386,16.2461 8.96103,23.2855l0.00944883 -0.00354331c2.12244,6.163 0.4063,12.7193 -3.87874,17.0658 -10.4126,12.8669 -38.9988,48.1359 -55.6855,41.641 -6.89174,-2.40118 -14.7697,-5.57126 -22.6536,-8.74135 -19.1681,-7.70906 -38.3882,-15.4406 -44.6634,-12.7854 -6.14528,2.59843 -14.126,20.9799 -22.2248,39.6355 -4.7504,10.9417 -10.3854,32.8725 -24.9142,33.9189 -18.0319,2.06811 -66.1831,7.4563 -73.5272,-10.1929 -3.5563,-7.13623 -7.16812,-15.4536 -10.7599,-23.7272 -8.09883,-18.6543 -16.0795,-37.0359 -22.2248,-39.6343 -6.2752,-2.65512 -25.4941,5.07638 -44.6622,12.7866 -8.12599,3.26811 -16.2473,6.53386 -23.2855,8.95985l0.00354331 0.0106299c-6.163,2.12244 -12.7193,0.4063 -17.0658,-3.87874 -7.31457,-5.91851 -14.0032,-11.9102 -20.0362,-17.9421 -8.42953,-8.43072 -26.9799,-23.9209 -21.6071,-37.7374 2.40236,-6.89528 5.57245,-14.7756 8.74489,-22.663 7.70906,-19.1669 15.4382,-38.3847 12.7854,-44.6599 -2.59961,-6.14528 -20.9811,-14.126 -39.6366,-22.2248 -10.9417,-4.7504 -32.8725,-10.3854 -33.9189,-24.9154 -0.52441,-4.57087 -0.941339,-9.3945 -1.24252,-14.4756 -0.320079,-5.43426 -0.486615,-10.513 -0.486615,-15.2102 0,-4.69489 0.166536,-9.77245 0.486615,-15.2055 0.317717,-5.36693 0.765355,-10.4469 1.33228,-15.2492l-0.0153543 -0.00236221c0.728741,-6.17363 4.75985,-11.1532 10.1185,-13.3831 7.13623,-3.5563 15.4536,-7.16812 23.7272,-10.7599 18.6543,-8.09883 37.0359,-16.0807 39.6343,-22.2248 2.65394,-6.2752 -5.07638,-25.4941 -12.7866,-44.6622 -3.26811,-8.12599 -6.53504,-16.2473 -8.96103,-23.2866l-0.00944883 0.00472441c-2.12244,-6.163 -0.4063,-12.7193 3.87874,-17.0669 5.91851,-7.31339 11.9102,-14.002 17.9421,-20.0351 8.42953,-8.42953 23.9209,-26.9799 37.7374,-21.6083 6.89528,2.40236 14.7756,5.57363 22.663,8.74607 19.1669,7.70906 38.3847,15.4382 44.6599,12.7854 6.14528,-2.59961 14.126,-20.9811 22.2248,-39.6366 9.2882,-21.3957 9.25749,-30.378 27.0544,-33.7772 16.1327,-3.07914 64.4705,-6.56812 71.3871,10.0524z"/>
  <path class="fil13" d="M721.639 1183.9c35.6764,0 67.9784,14.4626 91.3607,37.8449 23.3823,23.3823 37.8449,55.6831 37.8449,91.3595 0,35.6776 -14.4626,67.9784 -37.8449,91.3607 -23.3823,23.3823 -55.6843,37.8449 -91.3607,37.8449 -35.6764,0 -67.9784,-14.4626 -91.3607,-37.8449 -23.3823,-23.3823 -37.8449,-55.6831 -37.8449,-91.3607 0,-35.6764 14.4626,-67.9772 37.8449,-91.3595 23.3823,-23.3823 55.6843,-37.8449 91.3607,-37.8449z"/>
  <path class="fil14" d="M721.639 1250.67c17.237,0 32.8477,6.98859 44.1461,18.287 11.2984,11.2996 18.2882,26.9091 18.2882,44.1461 0,17.2394 -6.98977,32.8477 -18.2882,44.1461 -11.2984,11.2996 -26.9091,18.2882 -44.1461,18.2882 -17.2382,0 -32.8477,-6.98859 -44.1461,-18.2882 -11.2996,-11.2984 -18.2882,-26.9067 -18.2882,-44.1461 0,-17.237 6.98859,-32.8465 18.2882,-44.1461 11.2984,-11.2984 26.9079,-18.287 44.1461,-18.287z"/>
  <path class="fil15" d="M783.935 1250.8c-8.15552,-8.15552 -17.85,-14.7071 -28.5768,-19.1504 -10.3465,-4.28504 -21.7347,-6.65197 -33.7193,-6.65197 -11.9858,0 -23.3729,2.36693 -33.7205,6.65197 -10.7268,4.44331 -20.4213,10.9949 -28.5768,19.1504 -8.15434,8.15434 -14.7071,17.8477 -19.1492,28.5756 -4.28622,10.3476 -6.65197,21.7358 -6.65197,33.7217 0,11.9835 2.36575,23.3729 6.65197,33.7205 4.44213,10.7268 10.9937,20.4201 19.1492,28.5756 8.15552,8.15552 17.8488,14.7071 28.5768,19.1492 10.3476,4.28622 21.7358,6.65197 33.7205,6.65197 11.9847,0 23.3729,-2.36575 33.7193,-6.65197 10.728,-4.44213 20.4213,-10.9937 28.5768,-19.1492 8.15552,-8.15552 14.7071,-17.8488 19.1492,-28.5768 4.2874,-10.3465 6.65315,-21.7358 6.65315,-33.7193 0,-11.9847 -2.36575,-23.3729 -6.65315,-33.7217 -4.44213,-10.728 -10.9937,-20.4213 -19.1492,-28.5756zm-22.5059 -33.9189c12.7925,5.29843 24.2681,13.0264 33.8327,22.5921 9.56576,9.56457 17.2925,21.0402 22.591,33.8327 5.0941,12.2965 7.90512,25.7386 7.90512,39.7914 0,14.0516 -2.81103,27.4949 -7.90512,39.789 -5.29843,12.7937 -13.0252,24.2693 -22.591,33.8339 -9.56457,9.56576 -21.0402,17.2925 -33.8327,22.591 -12.2965,5.09292 -25.7398,7.90394 -39.7902,7.90394 -14.0516,0 -27.4949,-2.81103 -39.7902,-7.90394 -12.7937,-5.29843 -24.2681,-13.0252 -33.8339,-22.591 -9.56457,-9.56457 -17.2925,-21.0402 -22.591,-33.8327 -5.09292,-12.2965 -7.90394,-25.7386 -7.90394,-39.7902 0,-14.0528 2.81103,-27.4961 7.90394,-39.7914 5.29843,-12.7925 13.0264,-24.2681 22.591,-33.8327 9.56576,-9.56576 21.0402,-17.2937 33.8339,-22.5921 12.2953,-5.09174 25.7374,-7.90394 39.7902,-7.90394 14.0516,0 27.4937,2.81221 39.7902,7.90394z"/>
  <path class="fil4" d="M807.923 476.977l690.017 0c18.5185,0 35.3374,7.43032 47.5158,19.3996 12.176,11.9705 19.7351,28.5012 19.7351,46.7032l0 147.03c0,18.2032 -7.55906,34.7351 -19.7351,46.7032 -12.1784,11.9705 -28.9973,19.3996 -47.5158,19.3996l-690.017 0c-18.5185,0 -35.3374,-7.42914 -47.5158,-19.3996 -12.176,-11.9681 -19.7362,-28.5 -19.7362,-46.7032l0 -147.03c0,-18.202 7.56024,-34.7327 19.7362,-46.7032 12.1784,-11.9693 28.9973,-19.3996 47.5158,-19.3996z"/>
  <rect class="fil5" x="721.863" y="521.267" width="862.137" height="190.655"/>
  <rect class="fil6" x="776.391" y="604.697" width="57.0072" height="23.7958"/>
  <rect class="fil7" x="867.033" y="604.697" width="57.0072" height="23.7958"/>
  <rect class="fil8" x="957.675" y="604.697" width="57.0072" height="23.7958"/>
  <rect class="fil9" x="1048.32" y="604.697" width="57.0072" height="23.7958"/>
  <rect class="fil10" x="1225.94" y="604.697" width="57.0072" height="23.7958"/>
  <rect class="fil11" x="1376.51" y="621.825" width="152.967" height="23.7958"/>
  <rect class="fil11" x="1376.51" y="587.569" width="152.967" height="23.7958"/>
  <path class="fil4" d="M807.923 803.036l690.017 0c18.5185,0 35.3374,7.43032 47.5158,19.3984 12.176,11.9717 19.7351,28.5024 19.7351,46.7044l0 147.03c0,18.202 -7.55906,34.7351 -19.7351,46.7032 -12.1784,11.9705 -28.9973,19.3996 -47.5158,19.3996l-690.017 0c-18.5185,0 -35.3374,-7.42914 -47.5158,-19.3996 -12.176,-11.9681 -19.7362,-28.5012 -19.7362,-46.7032l0 -147.03c0,-18.202 7.56024,-34.7327 19.7362,-46.7044 12.1784,-11.9681 28.9973,-19.3984 47.5158,-19.3984z"/>
  <rect class="fil5" x="721.863" y="847.326" width="862.137" height="190.655"/>
  <rect class="fil6" x="776.391" y="930.756" width="57.0072" height="23.7958"/>
  <rect class="fil7" x="867.033" y="930.756" width="57.0072" height="23.7958"/>
  <rect class="fil8" x="957.675" y="930.756" width="57.0072" height="23.7958"/>
  <rect class="fil9" x="1048.32" y="930.756" width="57.0072" height="23.7958"/>
  <rect class="fil10" x="1225.94" y="930.756" width="57.0072" height="23.7958"/>
  <rect class="fil11" x="1376.51" y="947.884" width="152.967" height="23.7958"/>
  <rect class="fil11" x="1376.51" y="913.627" width="152.967" height="23.7958"/>
 </g>
</svg>
