<?xml version="1.0" encoding="UTF-8"?>
<!DOCTYPE svg PUBLIC "-//W3C//DTD SVG 1.1//EN" "http://www.w3.org/Graphics/SVG/1.1/DTD/svg11.dtd">
<!-- Creator: CorelDRAW -->
<svg xmlns="http://www.w3.org/2000/svg" xml:space="preserve" width="2048px" height="2048px" style="shape-rendering:geometricPrecision; text-rendering:geometricPrecision; image-rendering:optimizeQuality; fill-rule:evenodd; clip-rule:evenodd"
viewBox="0 0 2048 2048"
 xmlns:xlink="http://www.w3.org/1999/xlink">
 <defs>
  <style type="text/css">
   <![CDATA[
    .fil2 {fill:none}
    .fil10 {fill:#37474F}
    .fil9 {fill:#455A64}
    .fil4 {fill:#7B838E}
    .fil3 {fill:#8E96A3}
    .fil1 {fill:#C5E1A5}
    .fil0 {fill:#DCEDC8}
    .fil5 {fill:#415065;fill-rule:nonzero}
    .fil8 {fill:#7CB342;fill-rule:nonzero}
    .fil6 {fill:#EF5350;fill-rule:nonzero}
    .fil7 {fill:#FFAB40;fill-rule:nonzero}
   ]]>
  </style>
   <clipPath id="id0">
    <path d="M1024 -0.0011811c565.539,0 1024,458.462 1024,1024 0,565.539 -458.462,1024 -1024,1024 -565.539,0 -1024,-458.462 -1024,-1024 0,-565.539 458.462,-1024 1024,-1024z"/>
   </clipPath>
 </defs>
 <g id="Layer_x0020_1">
  <metadata id="CorelCorpID_0Corel-Layer"/>
  <path class="fil0" d="M1024 -0.0011811c565.539,0 1024,458.462 1024,1024 0,565.539 -458.462,1024 -1024,1024 -565.539,0 -1024,-458.462 -1024,-1024 0,-565.539 458.462,-1024 1024,-1024z"/>
  <g style="clip-path:url(#id0)">
   <g id="_289375832">
    <g>
     <polygon id="_2886183281" class="fil1" points="1584,743.999 2719.88,1879.88 2719.88,2696.55 1584,1560.67 "/>
     <polygon id="_288617824" class="fil1" points="1584,1560.67 2719.88,2696.55 2719.76,2698.93 2719.41,2701.25 2718.83,2703.49 2718.05,2705.63 2717.07,2707.67 2715.9,2709.59 2714.55,2711.39 2713.05,2713.05 2711.39,2714.55 2709.59,2715.9 2707.67,2717.07 2705.63,2718.05 2703.49,2718.83 2701.25,2719.41 2698.93,2719.76 2696.55,2719.88 1560.67,1584 1563.05,1583.88 1565.37,1583.53 1567.61,1582.95 1569.75,1582.17 1571.79,1581.18 1573.71,1580.02 1575.51,1578.67 1577.17,1577.17 1578.67,1575.51 1580.02,1573.71 1581.18,1571.79 1582.17,1569.75 1582.95,1567.61 1583.53,1565.37 1583.88,1563.05 "/>
     <polygon id="_288618712" class="fil1" points="1560.67,1584 2696.55,2719.88 1623.22,2719.88 487.334,1584 "/>
     <polygon id="_288618688" class="fil1" points="487.334,1584 1623.22,2719.88 1620.83,2719.76 1618.51,2719.41 1616.28,2718.83 1614.13,2718.05 1612.09,2717.07 1610.17,2715.9 1608.37,2714.55 472.491,1578.67 474.287,1580.02 476.211,1581.18 478.251,1582.17 480.395,1582.95 482.631,1583.53 484.948,1583.88 "/>
     <polygon id="_288619120" class="fil1" points="1578.67,472.491 2714.55,1608.37 2715.9,1610.17 2717.07,1612.09 2718.05,1614.13 2718.83,1616.28 2719.41,1618.51 2719.76,1620.83 2719.88,1623.22 1584,487.334 1583.88,484.948 1583.53,482.631 1582.95,480.395 1582.17,478.251 1581.18,476.211 1580.02,474.287 "/>
     <polygon id="_288619072" class="fil1" points="1584,487.334 2719.88,1623.22 2719.88,1833.22 1584,697.335 "/>
     <polygon id="_288619168" class="fil1" points="1584,697.335 2719.88,1833.22 2719.88,1879.88 1584,743.999 "/>
    </g>
    <path id="_289375544" class="fil1" d="M1584 743.999l0 816.667c0,12.887 -10.448,23.3351 -23.3351,23.3351l-1073.33 0c-12.887,0 -23.3351,-10.448 -23.3351,-23.3351l0 -816.667 0 -46.6654 0 -210c0,-12.887 10.448,-23.3351 23.3351,-23.3351l1073.33 0c12.887,0 23.3351,10.448 23.3351,23.3351l0 210.001 0 46.6642z"/>
   </g>
  </g>
  <path class="fil2" d="M1024 -0.0011811c565.539,0 1024,458.462 1024,1024 0,565.539 -458.462,1024 -1024,1024 -565.539,0 -1024,-458.462 -1024,-1024 0,-565.539 458.462,-1024 1024,-1024z"/>
  <path class="fil3" d="M1584 697.335l0 863.331c0,12.887 -10.448,23.3351 -23.3351,23.3351l-1073.33 0c-12.887,0 -23.3351,-10.448 -23.3351,-23.3351l0 -863.331 1120 0z"/>
  <polygon class="fil4" points="1584,697.335 1584,743.999 463.999,743.999 463.999,697.335 "/>
  <path class="fil5" d="M487.334 463.999l1073.33 0c12.887,0 23.3351,10.448 23.3351,23.3351l0 210 -1120 0 0 -210c0,-12.887 10.448,-23.3351 23.3351,-23.3351z"/>
  <polygon class="fil6" points="1397.44,532.809 1397.44,626.141 1490.77,626.141 1490.77,532.809 "/>
  <polygon class="fil7" points="1070.55,626.141 1163.89,626.141 1163.89,532.809 1070.55,532.809 "/>
  <polygon class="fil8" points="1233.76,532.809 1233.76,626.141 1327.09,626.141 1327.09,532.809 "/>
  <polygon class="fil9" points="674,969.978 674,932.881 843.912,842.331 843.912,881.838 709.176,951.656 843.912,1022.08 843.912,1061.66 "/>
  <polygon class="fil9" points="1107.84,969.978 937.926,1061.66 937.926,1022.08 1072.48,951.656 937.926,881.838 937.926,842.331 1107.84,932.881 "/>
  <polygon class="fil9" points="1165.27,1061.66 1165.27,1033.01 1374,1033.01 1374,1061.66 "/>
  <polygon class="fil10" points="874.07,1444 874.07,1251.36 805.287,1251.36 805.287,1212.11 989.553,1212.11 989.553,1251.36 920.932,1251.36 920.932,1444 "/>
  <polygon class="fil10" points="593.318,1444 593.318,1212.11 640.18,1212.11 640.18,1303.36 731.908,1303.36 731.908,1212.11 778.717,1212.11 778.717,1444 731.908,1444 731.908,1342.61 640.18,1342.61 640.18,1444 "/>
  <polygon class="fil10" points="1019.74,1444 1019.74,1212.11 1089.82,1212.11 1131.88,1370.3 1173.45,1212.11 1243.69,1212.11 1243.69,1444 1200.23,1444 1200.23,1261.46 1154.18,1444 1109.09,1444 1063.2,1261.46 1063.2,1444 "/>
  <polygon class="fil10" points="1291.47,1444 1291.47,1214 1338.28,1214 1338.28,1404.91 1454.68,1404.91 1454.68,1444 "/>
 </g>
</svg>
